<?xml version="1.0" standalone="no"?>
<!DOCTYPE svg PUBLIC "-//W3C//DTD SVG 20010904//EN" "http://www.w3.org/TR/2001/REC-SVG-20010904/DTD/svg10.dtd">
<svg version="1.0" xmlns="http://www.w3.org/2000/svg"
  width="840.000000pt" height="859.000000pt" viewBox="0 0 840.000000 859.000000"
  preserveAspectRatio="xMidYMid meet">

  <g transform="translate(0.000000,859.000000) scale(0.100000,-0.100000)"
    fill="#CAF78F" stroke="none">
    <path
      d="M3950 8463 c-608 -44 -1103 -175 -1601 -423 -479 -238 -936 -580
-1244 -930 -208 -238 -435 -556 -570 -799 -423 -762 -580 -1635 -470 -2606
104 -906 516 -1731 1191 -2385 537 -519 1187 -891 1861 -1065 775 -200 1698
-175 2440 66 857 278 1595 853 2141 1671 304 455 514 970 611 1503 52 288 66
461 65 820 -1 425 -33 714 -120 1068 -239 973 -853 1815 -1759 2413 -694 458
-1461 680 -2317 672 -101 -1 -203 -3 -228 -5z m532 -1273 c242 -50 374 -123
563 -314 185 -187 279 -327 348 -523 85 -237 82 -560 -7 -797 -116 -308 -356
-572 -653 -719 -176 -88 -317 -120 -528 -120 -175 0 -293 21 -436 78 -173 70
-296 152 -439 295 -326 327 -447 743 -340 1172 53 212 162 399 335 574 214
216 456 338 743 374 98 13 302 2 414 -20z m103 -3294 c450 -54 1015 -229 1445
-446 390 -198 597 -409 660 -673 32 -133 30 -141 -51 -248 -229 -300 -521
-580 -795 -762 -507 -336 -1082 -493 -1734 -474 -674 20 -1242 222 -1743 620
-266 210 -667 658 -667 742 0 119 77 309 170 422 145 176 400 338 780 496 460
191 914 306 1355 341 100 8 453 -3 580 -18z" />
  </g>
</svg>