<svg xmlns="http://www.w3.org/2000/svg" width="1280" height="1280"><path fill="#94C967" d="M620 0h38v2l3.438.813c5.766 1.446 11.403 3.129 16.75 5.75 4.56 2.082 9.57 2.244 14.507 2.714C696 12 696 12 698.453 14.007c3.276 2.563 6.172 2.68 10.172 2.93 6.239.571 10.82 1.92 16.426 4.82C731.04 24.282 737.606 25.014 744 26v2l2.309.332C761.496 30.664 761.496 30.664 768 35a111.1 111.1 0 0 0 4.828.723c2.654.339 5.285.764 7.922 1.215l2.797.464C786 38 786 38 789 40v2l3.945.332 5.18.48 2.594.213c5.05.486 8.839 1.317 13.281 3.975v2l3.867.402 5.008.535 2.55.264 2.442.264 2.254.238C832 51 832 51 834 52v2l2.09.367A371.377 371.377 0 0 1 854 58v2c5.112 1.044 10.246 1.97 15.38 2.895 5.397.993 5.397.993 7.62 2.105v2l1.896.26c2.827.389 5.653.783 8.479 1.177l2.984.409 2.852.4 2.634.365C898 70 898 70 900 71v2c4.869 1.518 9.403 2.359 14.5 2.875 4.845.559 8.488 1.287 12.492 4.117 4.106 2.06 8.983 2.464 13.485 3.2C944 84 944 84 946.527 85.531c4.035 2.396 8.4 2.31 13 2.745C963 89 963 89 965.871 90.965c4.03 2.62 7.555 3.062 12.254 3.66 1.587.215 3.173.436 4.758.664l2.106.272c2.273.496 4.017 1.245 6.011 2.439l1 2c1.932.496 1.932.496 4.262.71l2.642.337a925.9 925.9 0 0 0 5.508.633c5.663.73 8.845 2.012 13.588 5.32 2.754.852 5.53 1.313 8.375 1.75l2.23.379c1.797.303 3.596.589 5.395.871v2l2.309.367c6.286 1.02 12.489 2.186 18.691 3.633v2l2.02.367c1.94.353 3.88.71 5.82 1.07 2.05.365 4.104.7 6.164 1l2.871.438 2.617.367c2.508.758 2.508.758 4.785 2.754 3.71 2.73 6.91 2.852 11.41 3.192 8.144.727 8.144.727 10.313 1.812v2l3-1 1 2c2.506.623 2.506.623 5.5 1 3.894.595 7.768 1.196 11.625 2l2.133.438C1126 136 1126 136 1128 138c3.612 1.081 7.253 1.985 10.91 2.902L1142 142l1 3h2c.88 3.78 1.125 7.274 1.126 11.15l.008 3.772-.007 4.136.005 4.4c.004 4.032.002 8.064-.001 12.096-.003 4.348.001 8.697.004 13.046.004 8.523.003 17.047 0 25.571-.002 6.935-.002 13.87-.001 20.806v2.991l.001 6.017c.003 18.822 0 37.645-.006 56.468-.004 16.12-.003 32.239.001 48.359a124907.784 124907.784 0 0 1 .004 62.204v2.986c-.002 6.912 0 13.824.002 20.736.003 8.446.002 16.892-.003 25.338a9333.63 9333.63 0 0 0 0 12.907c.012 16.694.003 33.352-1.133 50.017h-1l-.148 3.473-.227 4.59c-.03.752-.062 1.504-.094 2.279-.252 4.854-1.05 9.029-2.531 13.658v1c-.481 6.064-.481 6.064-1 8l-3 2a67.655 67.655 0 0 0-.477 7.965c-.015.789-.03 1.578-.047 2.391a883.423 883.423 0 0 0-.101 7.582c-.037 2.523-.077 5.047-.123 7.57a607.563 607.563 0 0 0-.063 4.715c-.046 3.18-.176 5.738-1.189 8.777-.27 3.256-.445 6.511-.621 9.773-.364 3.096-1.077 5.413-2.379 8.227h-2l-.148 3.367c-.358 7.34-.711 14.482-2.45 21.653-.535 2.297-.535 2.297-.402 5.98l-1 1h1c-.75 6.75-.75 6.75-3 9-.389 2.231-.389 2.231-.5 4.75-.343 4.017-.71 7.576-2.5 11.25-2.074.652-2.074.652-4 1l.063 2.076c.084 3.141.136 6.282.187 9.424l.102 3.266c.073 6.008-.214 10.362-3.486 15.496-1.08 2.168-1.015 3.717-.866 6.113.242 4.68-1.107 8.008-2.977 12.25-1.323 3.071-2.18 6.143-3.023 9.375l-3-1 .07 2.3.055 3.013.07 2.988C1104 746 1104 746 1102 749c-.639 2.107-1 3.797-1 6v6l-3 1-.375 3.188c-.543 3.312-1.1 5.846-2.625 8.812l-3 2c-.474 2.95-.474 2.95-.5 6.313-.13 4.755-.481 7.892-3.5 11.687h-3l.14 2.598c.225 7.098.149 11.639-4.14 17.402h-2l-1 9-3 1c-.733 2.015-.733 2.015-1 4h1c.383 3.349.164 4.745-1.688 7.625-2.312 2.375-2.312 2.375-5 3.625-2.457 1.495-2.457 1.495-2.886 3.758-.53 4.163-.608 7.92.574 11.992l-3 1-.25 3.563c-.598 4.67-1.956 7.634-4.75 11.437-2.64.691-2.64.691-5 1l-.078 2.598c-.344 6.927-.834 11.732-4.922 17.402h-3l.188 2.625c-.216 3.88-1.166 6.08-3.188 9.375l-3 2c.03 1.052.03 1.052.063 2.125-.104 4.75-2.17 9.04-5.594 12.36A801.097 801.097 0 0 1 1029 924c-1.943 2.683-2.026 4.306-2.313 7.688-.804 7.564-5.239 13.318-10.687 18.312l-1 2 1 3c-1.375 1.5-1.375 1.5-3 3h-2l-.813 3.813c-.835 3.366-1.63 4.834-4.187 7.187-1.14 2.29-2.056 4.617-3 7h-2l-.688 1.875c-1.691 2.74-3.304 3.175-6.312 4.125v7h-2l-.875 2.813C990 995 990 995 988 998h-3l-.375 1.813C984 1002 984 1002 982 1005v3a90.576 90.576 0 0 1-4 4l-1 2h-2l-.75 1.688c-2.943 5.444-7.395 9.933-12.125 13.875L961 1031c.228 2.163.228 2.163 1 4l-3 2a791.206 791.206 0 0 0-3 5 178.888 178.888 0 0 1-4 4 664.22 664.22 0 0 0-3.188 3.75c-2.68 3.129-5.518 5.745-8.687 8.375-3.505 2.988-3.505 2.988-5.063 7.313L935 1068l-2 1-1.375 2.313c-1.655 2.736-3.337 4.463-5.625 6.687a445.865 445.865 0 0 0-3.438 3.938c-3.637 4.178-7.324 8.051-11.625 11.562-2.75 2.34-4.735 4.66-6.937 7.5-4.364 4.69-4.364 4.69-7.188 6.063-1.955.779-1.955.779-2.644 2.699-1.482 2.84-3.399 4.734-5.668 6.988l-2.406 2.422C884 1121 884 1121 882 1121l-.875 1.875C880 1125 880 1125 878 1127h-3l-.75 2.375c-1.46 3.064-2.3 3.242-5.25 4.625a177.537 177.537 0 0 0-2 4 141.488 141.488 0 0 1-5 5l-1.625 1.75C859 1146 859 1146 856 1147l-.813 1.938C854 1151 854 1151 850.875 1152.25L848 1153v3l-2.813-.188c-3.12-.085-3.12-.085-5.062 1.438-1.486 1.964-1.486 1.964-1.125 5.75l-1.727.258c-2.929.956-4.43 2.492-6.648 4.617-5.452 4.989-10.569 7.29-17.625 9.125 0 2.621.313 4.51 1 7-1.247.65-2.498 1.296-3.75 1.938l-2.11 1.09c-2.14.972-2.14.972-4.343 1.413-.593.185-1.186.37-1.797.559l-1 3c-2.625 1.89-4.99 2.125-8.125 2.375L789 1195c-1.234 1.714-1.234 1.714-2 4-1.847 2.159-3.796 4.204-6 6h-2l-1 3c-3.838 3.321-7.474 5.84-12.563 6.375L763 1214l-.313 1.875C762 1218 762 1218 759 1220c-1.938.238-1.938.238-4 .313-2.123.171-2.123.171-4 .687-1.52 2.254-1.52 2.254-3 5-2.271 1.732-4.62 3.247-7.04 4.766-1.886 1.086-1.886 1.086-2.96 2.234-2.333.04-4.667.042-7 0l-2 4h-2l-.875 1.875C725 1241 725 1241 723 1243c-2.323.4-4.657.74-7 1v-2l-1 4-6 1-1 3c-3.283 1.58-6.545 2.848-10 4l-1 2c-3.641 2.601-6.635 3.306-11 4l-1 2c-2.964 1.61-5.799 2.933-9 4l-1 2c-1.996.816-1.996.816-4.438 1.563-3.354 1.036-3.354 1.036-6.562 2.437l1-4-2 5h-4v2l-6 1v4h-26v-4l-6-1v-2l-2.063-.313c-5.202-1.217-9.18-2.93-12.937-6.687h-4l-1.75-1.375c-2.294-1.657-3.541-2.006-6.25-2.563-3.766-.83-5.431-2.126-8-5.062-2.133-1.235-2.133-1.235-4-2v-2l-2.75.188c-3.669-.212-4.517-.896-7.25-3.188a88.182 88.182 0 0 0-5-2v-2l-10-3v-2l-3-1-1.813-2.063c-2.074-2.279-2.074-2.279-5.187-1.874l-3-.063c-2.125-2.375-2.125-2.375-4-5-2.028-1.267-3.598-1.922-5.938-2.375-2.904-.88-4.737-2.707-7.062-4.625-1.311-.709-2.638-1.395-4-2v-2h-2v-2h-3l-1-2c-1.332-.338-2.666-.67-4-1-5.344-3.02-9.726-6.604-14-11-2.724-1.682-3.739-2-7-2a180.655 180.655 0 0 1-4-4l-1.938-.938c-2.885-1.486-4.779-3.779-7.062-6.062l-3-1-2.313-1.875c-2.63-2.246-2.63-2.246-5.875-3.625-3.105-1.656-3.428-2.436-4.812-5.5a177.537 177.537 0 0 0-4-2 281.771 281.771 0 0 1-5-5c-1.997-1.67-3.997-3.338-6-5l-2.125-2.25c-2.067-1.929-3.18-2.16-5.875-2.75-3.44-2.22-6.116-5.116-9-8l-2.688-2.125C426 1150 426 1150 424 1147a791.206 791.206 0 0 0-5-3 90.488 90.488 0 0 1-4-4l-1.438-1.438L412 1137l-2.563-2.375C407 1132 407 1132 405.938 1129.25L405 1127c-1.936-.672-1.936-.672-4-1-1.75-1.438-1.75-1.438-3-3v-2l-1.781-.794c-2.338-1.27-3.856-2.613-5.715-4.507l-1.943-1.963c-.66-.676-1.32-1.352-1.998-2.049l-1.987-2.013c-1.279-1.297-2.556-2.596-3.832-3.897a609.23 609.23 0 0 0-9.307-9.277c-2.437-2.5-2.437-2.5-4.5-5.188-1.737-2.41-1.737-2.41-4.125-3.312l-1.812-1-.438-2.5-.562-2.5a89.286 89.286 0 0 0-5-2c-1-1.813-1-1.813-2-4a282.832 282.832 0 0 0-5-5 499.397 499.397 0 0 1-3-4c-1.02-.96-1.02-.96-2.063-1.938C341 1063 341 1063 340 1060.438c-1.182-2.882-2.435-3.754-5-5.438-2-2-2-2-3.5-4.563-1.269-2.541-1.269-2.541-3.5-3.437l-.875-1.875c-.991-2.242-.991-2.242-3.063-3.563-2.497-1.891-3.514-3.853-5.062-6.562l-2.063-2.5c-1.937-2.5-1.937-2.5-2.8-4.863-1.316-3.053-2.982-4.918-5.262-7.324C305 1016.21 305 1016.21 305 1014h-2l-.688-1.688c-1.274-2.507-1.274-2.507-3.812-4.687-2.746-2.884-3.262-4.912-4.5-8.625l-2.375-2.375c-2.786-2.786-4.07-5.203-5.633-8.758-1.078-2.029-2.337-3.292-3.992-4.867-1.306-2.323-2.153-4.46-3-7h-2l-1.25-3.188c-1.095-2.596-2.034-4.154-3.875-6.375C270 964 270 964 269.5 960.813L269 958c-.64-.3-1.281-.598-1.941-.906C265 956 265 956 264.129 954.012l-.567-2.324c-1.307-4.47-3.215-6.422-6.562-9.688-1.173-2.33-2.16-4.679-3.105-7.11-.743-2.071-.743-2.071-2.895-2.89-.561-2.277-.892-4.553-1.242-6.871-.995-2.795-2.171-2.87-4.758-4.129-.906-1.988-.906-1.988-1.5-4.313-.89-3.049-1.42-4.59-3.5-7.062-2.153-2.826-2.662-4.71-3.5-8.125-1.11-4.5-2.44-6.976-5.5-10.5-1.115-2.306-2.105-4.64-3.07-7.012-.871-2.156-.871-2.156-2.93-3.988-.563-2.023-.563-2.023-1-4.375-.6-3.202-1.431-5.762-3-8.625h-2l-.332-1.863-.48-2.45-.458-2.425c-.815-2.526-1.869-3.442-3.73-5.262v-3h-2l-2-13h-3c-.506-1.915-1.004-3.832-1.5-5.75l-.844-3.234C204 827 204 827 204 823h-2c-2.607-2.499-3.275-4.88-3.938-8.313-.733-3.769-1.991-6.345-4.058-9.609-1.823-3.774-2.37-7.933-3.219-12.015-.685-2.672-1.33-4.323-2.847-6.563-2.752-4.132-2.901-8.876-3.446-13.707-.24-2.923-.24-2.923-2.492-4.793-3.139-5.755-3.708-11.41-4.375-17.89-.316-3.077-.316-3.077-2.098-4.555-2.473-2.517-2.474-5.816-2.964-9.18-.75-4.565-1.436-8.718-3.563-12.875-3.45-6.82-5-15.905-5-23.5h-2c-1.712-6.62-2.353-12.934-2.656-19.766-.334-3.136-1.115-5.36-2.344-8.234v-3h-2c-1.53-7.71-2.319-15.28-2.57-23.123-.232-5.638-1.321-9.214-4.43-13.877-.44-2.381-.78-4.782-1.063-7.188l-.256-2.128c-.42-3.67-.74-7.327-.923-11.016l-.105-2.118a489.794 489.794 0 0 1-.212-5.831c-.28-3.772-.28-3.772-1.882-7.25-2.251-5.572-2.435-11.441-2.896-17.38-.278-3.562-.593-7.12-.905-10.679l-.187-2.159c-.582-6.623-1.35-13.218-2.196-19.813l-.373-2.913c-.462-3.551-.935-7.096-1.489-10.634-2.5-18.957-1.664-38.42-1.658-57.507 0-4.366-.006-8.731-.01-13.097-.009-8.52-.011-17.04-.012-25.56 0-6.922-.003-13.844-.006-20.767-.009-19.656-.013-39.313-.012-58.97V350.589c0-17.183-.01-34.366-.023-51.548-.015-17.672-.022-35.344-.02-53.016 0-9.91-.003-19.82-.014-29.731-.01-8.424-.011-16.847-.005-25.27.004-4.297.004-8.593-.005-12.89-.008-3.932-.006-7.863.002-11.795.002-1.423 0-2.845-.005-4.268-.007-1.933-.001-3.866.006-5.8v-3.253c.398-4.813 1.186-8.058 4.811-11.33 4.189-2.056 7.825-2.482 12.438-2.687v-2c11.522-3.444 11.522-3.444 17-3l1-2v2l6-2v-2c5.483-2.063 10.464-2.394 16.27-2.656L194 127l1-2v2l4-2v-2c7.645-3.032 14.814-3.662 23-4v-2c3.823-1.423 6.913-2.24 11-2v-3l3.375.625L240 113l2-2a83.794 83.794 0 0 1 5.813-1.625c1.037-.26 2.075-.52 3.144-.79 2.779-.534 5.225-.7 8.043-.585l1-2v2l1.75-1.375c4.357-3.147 7.957-4.04 13.313-4.75l3.722-.508C282 101 282 101 285 101l1-2v2l2-1 1-3 6.152-.586L297 96l1-2 1.828.105 2.422.082 2.39.106c2.92-.363 4.038-1.53 6.36-3.293 2.98-.879 2.98-.879 6.188-1.563A85.037 85.037 0 0 0 323 88l1-2 2.875.625L330 87l2-2c1.816-.563 1.816-.563 3.992-1l2.387-.5 2.496-.5c1.623-.328 3.246-.661 4.867-1l2.183-.438c2.883-.781 5.3-2.099 7.852-3.624 3.755-1.584 7.802-1.733 11.823-2.149 3.521-.406 5.39-.782 8.4-2.789 5.857-3.227 12.35-4.341 19-4l1-2v2a393.378 393.378 0 0 0 3.813-1.813l2.144-1.019c2.1-1.064 2.1-1.064 3.555-2.805C407 62 407 62 411 62c1.752-.149 3.502-.316 5.25-.5l2.703-.281L421 61v-2c8.429-2.286 8.429-2.286 13-2l1-3v2c4.587-1.18 4.587-1.18 8.938-3 4.696-2.277 9.854-3.326 15.062-3l1-2v2l6-1v-3c4.913-1.862 9.569-2.583 14.75-3.125l2.324-.262C488.614 42 488.614 42 491 42l1-3 2.438-.375L497 38l1-2 3.063.063c3.763-.06 7.247-.325 10.937-1.063l1-2c3.785-1.548 6.918-2.24 11-2v-3l2.875.625L530 29l2-2c2.61-.852 2.61-.852 5.75-1.625 1.026-.26 2.052-.52 3.11-.79 3.125-.582 5.969-.69 9.14-.585l1-2h4l-1-2c7.32-1.86 14.468-2.558 22-3l1-3v3l1.25-1.375C581.515 12.594 583.492 12 588 12l1-2 3.688.063c3.227-.006 6.198-.12 9.312-1.063l1-2c2.434-.781 2.434-.781 5.438-1.5 4.23-.921 4.23-.921 7.562-3.5v2h4V0Zm523 488 1 2Zm0 10 1 4Zm-6 50 1 2Zm-6 66v5h1v-5h-1Zm-5 18 1 3Zm0 4 1 2Zm-1 2v7h1v-7h-1Zm-1 18 1 2Zm-2 2 1 2Zm-3 12 1 2 1-2h-2Zm-1 5 1 2Zm-6 25 1 2Zm0 3 1 3Zm0 4 1 2Zm-6 21 1 2Zm-1 3 1 3Zm-5 14 1 3Zm-3 15 1 2Zm-5 10 1 4Zm-6 17 1 2Zm-5 18 1 2Zm-1 2 1 2Zm-8 22v3Zm-13 30-1 2h2l-1-2Zm-2 3 2 3v-3h-2Zm-10 22 1 2 1-2h-2Zm-6 12 1 2Zm-1 3 1 2Zm-8 13 1 3Zm0 5 1 2Zm-9 18 1 2Zm-2 3-1 2h2l-1-2Zm-3 3-1 2 3-1-2-1Zm-3 3-2 4 4-4h-2Zm-8 13-1 4 2-4h-1Zm-7 14v5h1v-5h-1Zm-10 14 1 2Zm-1 3-3 6 3-1 1-5h-1Zm-8 10 1 2Zm-4 9-1 2 4-2h-3Zm-3 2v5l2-4-2-1Zm-19 27-7 8 1 2 7-8-1-2Zm-11 12 1 2Zm-15 20 1 2Zm-2 2 1 2 1-2h-2Zm2 1 1 2Zm-4 1a158.623 158.623 0 0 0-3 5h2l2-5h-1Zm-5 6 1 2Zm-3 3-10 10 1 2 11-11-2-1Zm-13 13-2 4 4-4h-2Zm-4 4-4 4 1 2 4-4-1-2Zm-6 6v3l2-3h-2Zm-7 7 1 2 1-2h-2Zm-2 2 1 2 1-2h-2Zm-4 4 1 2 1-2h-2Zm-6.125 6-1.875 2 1 2 5-6c-2.244-.228-2.244-.228-4.125 2Zm-3.875 4a317.62 317.62 0 0 0-5 6c2.622-1.049 3.794-1.65 5.25-4.125L872 1127h-1Zm-6 6c-.748.76-1.495 1.519-2.266 2.3l-2.984 3.013-1.488 1.513c-2.119 2.133-4.194 4.124-6.621 5.904L850 1147v2c2.229.228 2.229.228 4.063-1.938L857 1144c1.601-1.607 3.206-3.21 4.813-4.813l2.394-2.394L866 1135l-1-2Zm-429 23 3 3-1-3h-2Zm386 13 1 2 1-2h-2Zm-17 13-2 4 4-4h-2Zm-28 19 1 2 2-2h-3Zm-6.625 6.5L769 1209c1.975-.348 1.975-.348 4-1l1-2c-2.124-.226-2.124-.226-3.625 1.5ZM737 1227l1 2Zm-15 11-1 2h2l-1-2Zm-21 11 1 2 4-3c-2.925-.224-2.925-.224-5 1Zm-99 14v2l2-1-2-1Z"/><path fill="#58B78E" d="M637.056 224.87c2.773.005 5.545 0 8.317-.007 8.05-.005 16.099.045 24.139.457l3.463.173c3.32.556 5.209 1.724 8.025 3.507 2.167.545 2.167.545 4.371.66l2.47.213 2.597.19c1.791.158 3.583.318 5.375.48l2.664.232c3.496.312 6.976.675 10.46 1.1l3.215.367c3.4.905 5.155 2.54 7.848 4.758 2.47.852 2.47.852 5 1.187l2.5.418 2.5.395 2.617.543c2.49.539 2.49.539 5.508.582 3.96.894 5.879 2.059 9.188 4.312 3.605 2.432 6.312 3.96 10.625 4.563 5.505.782 9.536 3.327 14.203 6.246 2.882 1.768 5.832 3.253 8.859 4.754l2.875 1.937c2.287 1.51 4.376 2.742 6.813 3.938l2.066 1.023c1.564.768 3.135 1.522 4.71 2.266 8.009 4.022 14.262 9.5 20.91 15.402 5.273 4.648 10.56 8.916 16.689 12.371 4.737 2.72 8.233 6.091 11.98 10.036 1.974 2.137 1.974 2.137 4.582 4.09 2.888 2.355 5.146 5.037 7.55 7.874 1.707 1.929 3.493 3.636 5.388 5.375 4.269 4.173 6.99 9.282 9.437 14.688v2l1.723.684c6.735 3.893 11.304 11.96 14.765 18.75 1.666 2.828 3.576 5.336 5.577 7.932 4.72 6.136 8.085 11.444 10.189 19.005.87 3.069 2.122 5.69 3.613 8.496 1.445 2.72 2.78 5.49 4.133 8.258 1.599 3.234 3.109 6.023 5.25 8.937 1.805 3.031 2.14 4.814 2.625 8.25.614 4.174 1.468 6.49 4.125 9.75 3.823 5.085 3.79 10.293 4.24 16.424.441 5.245 1.353 8.275 4.655 12.448 2.13 3.981 1.83 8.562 1.964 12.992.003 3.114.003 3.114 1.141 6.074.116 2.079.178 4.16.21 6.242.03 1.231.058 2.462.087 3.73.052 2.594.096 5.188.133 7.782l.093 3.738.06 3.418c.201 3.115.201 3.115 1.922 5.462 2.08 3.655 1.925 7.09 1.893 11.183l.01 2.484c.001 1.73-.004 3.46-.017 5.189-.016 2.632 0 5.262.02 7.893-.003 1.686-.007 3.372-.013 5.059l.019 2.361c-.066 5.166-1.249 8.703-3.417 13.459-.458 2.797-.458 2.797-.441 5.555l-.076 3.088-.045 3.232c-.215 7.606-.443 15.18-1.25 22.75l-.395 3.852c-.771 3.426-2.019 5.702-3.85 8.661-1.728 3.412-1.995 7.103-2.443 10.862-.759 6.372-2.135 10.522-5.5 16-.972 2.618-.972 2.618-1.562 5.187l-.739 2.856a188.543 188.543 0 0 0-1.304 5.945c-1.45 6.772-3.71 11.753-7.676 17.442-1.852 2.77-3.265 5.572-4.719 8.57-16.386 32.164-16.386 32.164-25.3 40.238-1.815 1.881-2.674 3.5-3.7 5.887-1.81 4.115-4.352 5.832-7.996 8.328-2.716 2.096-4.424 4.562-6.387 7.348C857.871 743.334 847.955 752.58 838 761l-2.887 2.48c-4.866 4.15-9.685 8.083-15.215 11.332-2.117 1.325-4.013 2.811-5.96 4.375-4.11 3.25-8.355 6.249-12.688 9.188l-1.934 1.337C795.904 792 793.187 793.568 789 794v2c-15.507 8.464-31.096 15.457-47.723 21.422a99.992 99.992 0 0 0-7.687 3.129c-5.4 2.18-10.994 3.25-16.676 4.467-5.311 1.192-10.049 2.733-14.946 5.124-6.676 2.911-14.856 1.965-21.968 1.858l-1-2c-2.417-.027-4.833-.047-7.25-.063l-2.066-.025c-3.402-.016-6.42.13-9.684 1.088h-6l-2.86.496c-5.815.87-11.713.608-17.577.566l-3.663-.013c-2.966-.012-5.933-.028-8.9-.049v1c-2.333.042-4.667.04-7 0l-1-1a91.472 91.472 0 0 0-5.062-.063l-2.786.028L603 832v-2c-3.343-.074-5.804-.065-9 1l-2-1c-2.687-.321-5.37-.607-8.062-.875-7.191-.777-13.527-2.108-20.133-5.129-4.453-1.581-9.077-2.098-13.742-2.764-4.186-.664-6.148-1.3-9.063-4.232-2.067-.926-2.067-.926-4.395-1.578-.866-.27-1.733-.54-2.625-.82l-2.792-.852c-7.815-2.484-14.908-5.331-22.157-9.18-3.592-1.86-7.254-3.338-11.043-4.746C496 799 496 799 493 797a88.394 88.394 0 0 0-4.875-1.563l-2.555-.753c-2.55-.727-2.55-.727-5.136-1.082-2.855-.706-4.26-1.773-6.496-3.665-3.471-2.82-7.005-5.366-10.75-7.812-5.31-3.49-10.404-7.2-15.458-11.05a200.85 200.85 0 0 0-4.804-3.555c-5.705-4.078-10.72-8.856-15.824-13.645a150.57 150.57 0 0 0-7.227-6.313c-6.137-5.29-11.157-11.897-16.194-18.216-2.21-2.74-4.193-4.951-7.243-6.721-3.552-2.373-4.738-4.872-6.41-8.719-1.06-2.248-1.06-2.248-4.028-4.406-3.208-2.673-4.356-4.683-5.945-8.438-1.356-2.65-3.188-4.744-5.055-7.062-3.78-5.934-7.076-11.96-9.762-18.457-1.375-2.825-2.995-5.405-4.673-8.059-6.22-9.852-6.22-9.852-6.268-16.382-.523-3.699-2.868-6.48-4.879-9.555-1.833-3.292-2.383-6.314-2.8-10.027-.544-2.762-.544-2.762-2.575-5.75-2.478-4.132-3.022-8.17-3.605-12.895-.697-5.472-1.506-9.132-4.438-13.875-.695-3.48-.695-3.48-1.125-7.188-.413-4.56-.413-4.56-1.875-8.812-.142-1.803-.226-3.61-.281-5.418l-.114-3.303-.105-3.467c.103-11.308.103-11.308-2.518-22.145-1.778-4.828-1.31-9.889-1.294-14.98l-.05-3.341c-.005-9.092-.005-9.092 1.878-13.19 2.658-6.041 1.717-12.883 1.547-19.344a974.07 974.07 0 0 1-.153-8.042l-.09-3.575c.181-3.219.88-5.28 2.18-8.195.342-2.452.63-4.912.875-7.375.897-7.989.897-7.989 3.188-11.438 2.275-3.744 2.443-6.353 2.742-10.64.447-5.828 1.39-10.643 4.758-15.485 2.093-3.058 2.657-4.933 2.687-8.625.305-5.723 3.04-9.715 6.027-14.407 3.031-4.786 5.64-9.646 8.036-14.78l1.02-2.18a103.085 103.085 0 0 0 4.605-11.945c1.85-5.452 5.135-9.184 8.882-13.484 2.528-3.062 4.316-6.216 6.14-9.723 1.395-2.573 3.152-4.687 5.04-6.918a565.962 565.962 0 0 0 2.938-3.938c1.84-2.476 3.723-4.861 5.75-7.187 2.387-2.726 2.387-2.726 3.625-5.75 2.018-3.737 4.545-6.143 7.59-9.066 1.92-1.885 3.67-3.821 5.41-5.872 7.489-8.622 14.904-15.62 24.425-21.94 6.354-4.377 12.147-9.501 17.93-14.599 6.21-5.338 12.576-9.174 19.852-12.824 3.332-1.746 6.366-3.72 9.48-5.824l2.563-1c2.57-.916 2.57-.916 4.812-2.938 2.468-1.939 4.698-2.998 7.598-4.14 3.39-1.542 6.467-3.607 9.597-5.617 3.413-1.833 6.584-2.208 10.403-2.645 3.52-.768 5.55-2.129 8.465-4.223 4.495-3 7.07-3.986 12.562-3.437a208.063 208.063 0 0 0 5-2c1.33-.15 2.665-.273 4-.375 3.071-.313 3.812-.463 6.25-2.563 5.604-4.202 13.194-3.942 19.992-4.519.927-.08 1.854-.16 2.809-.244 1.853-.155 3.707-.298 5.562-.426l2.63-.213 2.339-.168c2.567-.398 2.567-.398 5.152-1.99 4.188-1.926 7.721-2.06 12.278-2.182l2.64-.1c9.132-.314 18.268-.371 27.404-.35Z"/><path fill="#FAFCFC" d="M663.995 615.502c7.623 1.91 15.235 2.053 23.065 2.17 17.967.325 17.967.325 24.94 6.328 2.666.728 5.105 1.272 7.812 1.687l2.042.354c3.477.589 6.95 1.055 10.455 1.443 3.83.535 6.297 1.742 9.691 3.516h4v2l2.312-.125C751 633 751 633 754 635l3.687.375c5.401.557 10.048 2.745 14.22 6.207 2.525 1.71 4.327 1.907 7.343 2.23 5.174.805 7.967 2.467 11.91 5.805 2.68 2.015 5.63 2.535 8.84 3.383a210.028 210.028 0 0 1 5 4l3.184 1.316c4.162 1.73 7.702 4.099 11.378 6.684l2.09 1.46c2.126 1.5 4.24 3.015 6.348 4.54l1.972 1.426c7.85 5.747 14.432 11.506 20.028 19.574l1.672 2.379A158.642 158.642 0 0 1 860 708l1.133 1.965c2.518 4.587 3.163 7.705 2.867 13.035l.848 2.758c.199 4.234-1.108 5.507-3.824 8.596l-1.774 1.896-1.796 1.99c-5.16 5.637-10.656 10.782-16.454 15.76l-2.11 1.883c-6.592 5.88-13.283 11.6-20.89 16.117-1.722 1.21-3.43 2.44-5.125 3.687-.955.7-1.91 1.398-2.895 2.118-1.98 1.458-3.956 2.922-5.93 4.39l-2.863 2.117-2.582 1.926c-2.764 1.87-5.615 3.288-8.605 4.762l-2.438 2c-2.392 1.867-4.582 2.982-7.382 4.105-2.723 1.118-5.384 2.347-8.055 3.582l-3.398 1.567a457.656 457.656 0 0 0-7.891 3.773c-7.545 3.663-14.817 6.779-22.926 9.04-2.874.922-5.275 2.099-7.91 3.558-4.884 2.605-9.571 3.295-15.023 3.984-4.842.636-9.134 2.048-13.641 3.883-4.275 1.605-8.37 2.262-12.899 2.695l-2.344.246c-6.37.616-12.66.7-19.054.54-2.617.023-4.555.316-7.039 1.027h-6l-2.86.496c-5.815.87-11.713.608-17.578.566l-3.662-.013c-2.966-.012-5.933-.028-8.9-.049v1c-2.333.042-4.667.04-7 0l-1-1a91.472 91.472 0 0 0-5.063-.063l-2.785.028L603 832v-2c-3.343-.074-5.804-.065-9 1l-2-1c-2.687-.321-5.37-.607-8.063-.875-7.19-.777-13.526-2.108-20.132-5.129-4.453-1.581-9.077-2.098-13.743-2.764-4.185-.664-6.147-1.3-9.062-4.232-2.067-.926-2.067-.926-4.395-1.578l-2.625-.82c-.922-.28-1.843-.562-2.793-.852-7.814-2.484-14.907-5.331-22.156-9.18-3.592-1.86-7.254-3.338-11.043-4.746C496 799 496 799 493 797a108.77 108.77 0 0 0-4.375-1.313c-4.31-1.364-6.587-3.292-9.625-6.687l-3-1v-2l-2.031-.664c-3.895-1.753-7.068-4.152-10.469-6.711l-1.973-1.46c-2.779-2.067-5.515-4.155-8.199-6.345-2.277-1.78-4.566-3.146-7.078-4.57-8.014-5.021-14.56-11.757-21.294-18.34a516.295 516.295 0 0 0-5.198-4.996c-6.51-6.283-6.51-6.283-7.824-9.621L411 731l-3-1c-1.125-4.75-1.125-4.75 0-7 .29-1.872.558-3.748.812-5.625 1.323-8.078 4.026-13.34 9.493-19.328 2.106-2.543 3.802-5.26 5.57-8.047 3.523-5.338 7.014-9.194 12.125-13l3.09-2.328c7.244-5.356 14.756-10.126 22.535-14.664 3.202-1.905 6.293-3.916 9.375-6.008 3.644-2.43 5.712-2.162 10-2v-2h2l.691-1.89c1.734-2.795 3.111-3.031 6.246-3.86l2.653-.734C495 643 495 643 498 643l3-1 1-2c2.477-1 2.477-1 5.625-2l3.309-1.059c3.343-1.026 6.701-1.989 10.066-2.941 8.069-2.014 8.069-2.014 15-6 1.57-.273 3.152-.49 4.734-.684l2.93-.373c2.041-.252 4.083-.502 6.125-.75l2.945-.377 2.695-.33c3.666-.693 6.637-1.702 9.508-4.111 2.762-1.841 4.816-1.596 8.063-1.375v-2l2.324.07c13.731.224 27.623-.848 41.09-3.6 15.492-2.815 32.363-3.022 47.58 1.032ZM646.059 312.465c6.694 2.347 13.645 2.307 20.673 2.619l3.14.193 2.84.133c2.288.59 2.288.59 3.49 2.593L677 320c1.893.735 1.893.735 4 1 5.367 1.737 10.183 4.063 15 7l2.484 1.484c2.51 1.5 5.013 3.007 7.516 4.516l2.691 1.586c2.138 1.31 3.717 2.486 5.309 4.414v2l3 1c5.631 5.813 9.976 12.247 13.652 19.426 1.268 2.42 2.659 4.668 4.16 6.949 1.826 2.844 2.867 5.198 3.188 8.625l3 1c2.985 5.853 4.466 12.358 5.508 18.809.398 2.209.398 2.209 1.484 4.101 3.085 6.396 2.229 14.234 2.248 21.183.01 2.072.04 4.142.072 6.214.057 7.073-.398 13.406-2.537 20.175-.778 2.529-1.302 5.005-1.767 7.608l-.45 2.435a334.828 334.828 0 0 0-.843 4.907c-1.01 5.324-2.102 7.39-6.715 10.568l-.5 3.5c-.642 4.493-2.038 4.763-5.5 7.5-1.09 2.09-1.09 2.09-2 4.438-1.709 4.176-3.667 6.456-7 9.562a265.841 265.841 0 0 0-3.938 4.875l-2.09 2.621a224.457 224.457 0 0 0-3.538 4.602c-3.141 4.03-5.681 5.72-10.559 7.226-2.737.987-4.64 2.843-6.875 4.676a330.776 330.776 0 0 1-5.12 2.184c-2.907 1.262-5.654 2.815-8.442 4.316-10.31 5.289-21.248 6.69-32.666 7.767-3.948.395-7.125 1.226-10.772 2.733-3.565-.307-6.608-.87-10-2-2.351-.294-4.706-.56-7.063-.813-6.242-.728-12.36-1.778-18.5-3.125l-2.232-.477c-4.68-1.062-8.846-2.574-13.205-4.585v-2l-2.176-.844c-2.733-1.119-5.366-2.343-8.011-3.656l-2.606-1.281C573 521 573 521 571 519c-1.675-.664-3.352-1.326-5.05-1.926-2.843-1.566-4.722-3.719-6.95-6.074l-1.552-1.638a912.811 912.811 0 0 1-5.01-5.362l-1.71-1.828c-9.115-9.809-9.115-9.809-9.728-15.172h-2c-2.125-1.563-2.125-1.563-4-4-.25-3.75-.25-3.75 0-7h-2v-3l-3-1a72.84 72.84 0 0 1-2.5-7.625l-.647-2.346c-.431-1.591-.854-3.185-1.269-4.78a350.37 350.37 0 0 0-1.572-5.8c-4.202-17.266-3.29-36.295.988-53.449l.727-3.352c1.521-6.739 3.249-13.624 8.273-18.648l.75-3.125c1.05-3.997 3.139-6.654 5.688-9.852 1.457-1.887 2.668-3.782 3.875-5.836 6.203-10.112 13.802-19.13 24.64-24.19 4.53-2.205 8.758-4.869 12.547-8.185 2.474-1.793 3.662-2.173 6.563-2.75 4.162-.857 5.405-2.657 7.937-6.062 4.549-1.4 9.404-1.216 14.125-1.375 6.49-.265 12.177-1.025 18.398-2.98 6.044-1.573 11.72-1.346 17.536.82Z"/><path fill="#C1EF88" d="M1137 144c3.044-.082 5.072.024 8 1 .88 3.78 1.125 7.274 1.126 11.15l.008 3.772-.007 4.136.005 4.4c.004 4.032.002 8.064-.001 12.096-.003 4.348.001 8.697.004 13.046.004 8.523.003 17.047 0 25.571-.002 6.935-.002 13.87-.001 20.806v2.991l.001 6.017c.003 18.822 0 37.645-.006 56.468-.004 16.12-.003 32.239.001 48.359a124907.784 124907.784 0 0 1 .004 62.204v2.986c-.002 6.912 0 13.824.002 20.736.003 8.446.002 16.892-.003 25.338a9333.63 9333.63 0 0 0 0 12.907c.012 16.694.003 33.352-1.133 50.017h-1l-.148 3.508-.227 4.617-.094 2.305c-.233 4.516-.858 8.312-2.531 12.57l-3-1c-1.102-41.364-1.136-82.712-1.104-124.087.008-9.644.01-19.288.01-28.931.002-17.191.009-34.382.019-51.573.009-16.649.016-33.297.02-49.945v-3.13l.005-15.552c.01-39.772.025-79.544.045-119.317l.002-3.634.002-3.142L1137 144Zm6 344 1 2Zm0 10 1 4Z"/><path fill="#C7F58D" d="m138 144 5 1-.984 3.05c-1.067 3.758-1.27 7.218-1.278 11.136l-.012 2.097c-.01 2.311-.008 4.623-.004 6.934a4419.373 4419.373 0 0 0-.038 18.835c-.004 4.965-.02 9.93-.033 14.894-.023 8.6-.038 17.199-.048 25.798-.014 12.434-.04 24.867-.068 37.301-.045 20.173-.082 40.345-.113 60.518-.03 19.595-.065 39.191-.105 58.787l-.007 3.66-.037 18.18c-.104 50.27-.193 100.54-.273 150.81h-1c-1.96-9.424-2.297-18.636-2.292-28.22a4083.846 4083.846 0 0 1-.054-18.083c-.008-4.768-.027-9.537-.045-14.306-.033-9.33-.055-18.66-.073-27.991a26315.318 26315.318 0 0 0-.084-32.614c-.059-20.57-.105-41.14-.147-61.71a51501.89 51501.89 0 0 0-.138-52.928 74042.985 74042.985 0 0 1-.182-68.063l-.008-3.26c-.018-7.575-.04-15.149-.064-22.723-.03-9.231-.052-18.462-.065-27.694-.007-4.708-.017-9.416-.036-14.124-.017-4.312-.025-8.625-.025-12.938-.002-1.557-.007-3.114-.016-4.671-.045-8.09.149-15.805 2.229-23.675Z"/><path fill="#2C4318" d="M135 145c2.193 3.545 2.249 6.413 2.246 10.536l.007 1.994c.005 2.215-.004 4.429-.012 6.643a4012.704 4012.704 0 0 1-.008 18.01c-.01 4.745-.007 9.49-.005 14.237.001 8.224-.005 16.449-.017 24.674-.016 11.891-.021 23.783-.024 35.675-.004 19.292-.017 38.585-.036 57.877-.018 18.743-.033 37.486-.041 56.23l-.002 3.5-.007 17.38c-.021 48.082-.056 96.163-.101 144.244h-1c-3.14-19.928-2.146-40.511-2.13-60.63.002-4.368-.002-8.736-.005-13.104-.004-8.523-.003-17.047 0-25.57.002-6.925.002-13.85.001-20.775v-2.998l-.001-6.03c-.003-18.787 0-37.574.006-56.361.004-16.118.003-32.236-.001-48.354a125219.239 125219.239 0 0 1-.004-62.24v-2.978c.002-6.924 0-13.849-.002-20.773-.003-8.426-.002-16.852.003-25.278.003-4.298.004-8.597 0-12.895-.003-3.932-.001-7.865.004-11.797.001-1.424 0-2.848-.002-4.272-.003-1.932.001-3.865.005-5.797v-3.256c.12-2.739.506-5.226 1.126-7.892Z"/><path fill="#000100" d="M1144 145h1c.88 3.78 1.125 7.274 1.126 11.15l.008 3.772-.007 4.136.005 4.4c.004 4.032.002 8.064-.001 12.096-.003 4.348.001 8.697.004 13.046.004 8.523.003 17.047 0 25.571-.002 6.935-.002 13.87-.001 20.806v2.991l.001 6.017c.003 18.822 0 37.645-.006 56.468-.004 16.12-.003 32.239.001 48.359a124907.784 124907.784 0 0 1 .004 62.204v2.986c-.002 6.912 0 13.824.002 20.736.003 8.446.002 16.892-.003 25.338a9333.63 9333.63 0 0 0 0 12.907c.012 16.694.003 33.352-1.133 50.017h-1a2147.645 2147.645 0 0 1-1.2-68.06c-.009-4.185-.022-8.369-.035-12.553-.022-7.203-.04-14.406-.056-21.61-.023-10.414-.051-20.828-.08-31.242-.048-16.907-.09-33.814-.132-50.72a180138.903 180138.903 0 0 0-.174-67.554c-.114-42.087-.22-84.174-.323-126.261h2v-5Z"/><path fill="#5FB381" d="m864 729 4 1c-8.867 11.434-18.896 21.722-30 31l-2.871 2.465c-4.87 4.157-9.695 8.094-15.23 11.347-2.118 1.325-4.014 2.811-5.962 4.375-4.109 3.25-8.354 6.249-12.687 9.188l-1.934 1.337C795.904 792 793.187 793.568 789 794v2c-15.507 8.464-31.096 15.457-47.723 21.422a99.992 99.992 0 0 0-7.687 3.129c-5.4 2.18-10.994 3.25-16.676 4.467-5.311 1.192-10.049 2.733-14.946 5.124-6.676 2.911-14.856 1.965-21.968 1.858v-2l4.375-.875 2.762-.559c1.833-.362 3.668-.71 5.508-1.039 5.204-.951 9.54-2.356 14.355-4.527 2.863-.66 5.734-1.117 8.637-1.578 7.274-1.181 13.408-2.53 19.898-6.18 2.811-1.416 5.557-2.216 8.59-3.054 7.508-2.179 14.132-5.666 21.037-9.252 2.535-1.29 5.116-2.464 7.713-3.624 10.62-4.724 10.62-4.724 20.125-11.312 1.638-.917 3.276-1.833 4.918-2.742 6.038-3.648 11.592-8.124 17.207-12.383 2.678-2.03 5.417-3.88 8.25-5.688 4.323-2.85 8.043-6.133 11.832-9.652 2.01-1.824 4.021-3.57 6.117-5.289C849.87 745.21 857.047 737.608 864 729Z"/><path fill="#639350" d="M349 1067h4v2h3l.125 1.688c1.307 3.453 4.078 4.99 6.875 7.312v3l3 1 2 1v2l3 1v2l1.875.75c2.529 1.487 2.843 2.687 4.125 5.25 1.324.685 2.66 1.349 4 2 3.352 3.1 6.155 6.443 9 10 3.249 3.424 6.708 6.484 10.305 9.527 2.352 2.044 4.521 4.242 6.695 6.473l2.563 2.5c2.437 2.5 2.437 2.5 4.187 4.875 2.776 3.239 5.959 5.508 9.422 7.977L425 1139v3l3 1c-1.773.68-1.773.68-4 1-1.79-1.117-1.79-1.117-3.625-2.875l-2.09-1.941L416 1137a795.6 795.6 0 0 0-5.188-4.813l-2.417-2.269c-2.417-1.936-4.503-2.878-7.395-3.918-1.813-1.5-1.813-1.5-3-3v-2l-1.781-.794c-2.338-1.27-3.856-2.613-5.715-4.507l-1.943-1.963c-.66-.676-1.32-1.352-1.998-2.049l-1.987-2.013c-1.279-1.297-2.556-2.596-3.832-3.897a609.23 609.23 0 0 0-9.307-9.277c-2.437-2.5-2.437-2.5-4.5-5.188-1.71-2.4-1.71-2.4-3.98-3.167-1.957-1.145-1.957-1.145-2.785-3.31l-.422-2.46-.453-2.477L359 1078h-2c-1.691-1.645-1.691-1.645-3.563-3.813l-1.878-2.144C350 1070 350 1070 349 1067Z"/><path fill="#000200" d="M135 145c2.599 3.821 1.668 6.592 1 11a162.027 162.027 0 0 0-.139 6.359l-.016 3.758-.003 4.088-.015 4.374c-.014 3.998-.021 7.995-.028 11.993-.008 4.314-.021 8.628-.034 12.942-.022 7.472-.04 14.943-.056 22.415-.023 10.803-.05 21.606-.08 32.408-.048 17.527-.091 35.055-.132 52.582-.04 17.025-.08 34.05-.125 51.075l-.008 3.18-.041 15.797c-.114 43.676-.22 87.353-.323 131.029h-1a504852.707 504852.707 0 0 1-.056-155.92c-.004-17.327-.012-34.654-.021-51.98-.01-17.772-.015-35.544-.017-53.316-.001-10.97-.006-21.942-.014-32.913-.005-7.517-.007-15.035-.006-22.552.001-4.341 0-8.682-.005-13.023-.005-3.971-.005-7.943-.002-11.915 0-1.44 0-2.878-.004-4.317-.004-1.952-.001-3.905.002-5.858l-.001-3.29c.117-2.748.5-5.241 1.124-7.916Z"/><path fill="#48692C" d="m927 1067 3 1-2.125 2c-2.163 2.144-3.925 4.394-5.688 6.875-2.717 3.726-5.789 6.53-9.316 9.477-2.093 1.759-2.093 1.759-4.371 4.648-2.023 2.428-3.86 4.237-6.25 6.25-4.226 3.575-7.774 7.608-11.367 11.809L889 1111h-2v2h-2l-1 4h-3l-.776 1.8c-1.343 2.415-2.674 3.662-4.802 5.407-4.639 3.927-8.901 8.16-13.172 12.48l-2.246 2.26a3223.334 3223.334 0 0 0-4.116 4.15L854 1145l-2.099 2.195c-2.013 1.911-3.192 2.418-5.901 2.805v-3h2l.787-1.81c1.309-2.363 2.54-3.535 4.627-5.23 3.532-2.988 6.853-6.137 10.11-9.42l1.444-1.455c1.47-1.485 2.94-2.972 4.407-4.46 1.963-1.99 3.93-3.976 5.898-5.96l2.607-2.643C880 1114 880 1114 882 1113c.966-1.08 1.9-2.188 2.813-3.313 2.494-2.98 5.133-5.276 8.187-7.687l1.777-2.24c2.537-3.15 5.29-5.953 8.16-8.795l1.703-1.699c1.785-1.778 3.572-3.553 5.36-5.329l3.602-3.587c2.205-2.198 4.412-4.394 6.62-6.589 2.264-2.25 4.523-4.503 6.778-6.761Z"/><path fill="#61914E" d="M406 729c3.885.914 5.529 2.47 7.73 5.629 3.15 4.32 6.654 8.062 10.457 11.808l1.992 1.971c7.843 7.679 15.978 14.221 25.344 19.987 2.729 1.768 5.043 3.75 7.45 5.921 2.824 2.346 5.819 4.414 8.84 6.496l1.745 1.205c2.106 1.44 4.158 2.84 6.442 3.983v2l2.375.188L481 789c1.313 2.563 1.313 2.563 2 5-3.914-.538-6.06-1.522-9.063-4.063-3.47-2.82-7.004-5.366-10.75-7.812-5.31-3.49-10.403-7.2-15.457-11.05a200.85 200.85 0 0 0-4.804-3.555c-5.705-4.078-10.72-8.856-15.824-13.645a150.57 150.57 0 0 0-7.227-6.313c-5.637-4.838-10.186-10.83-14.875-16.562l1-2Z"/><path fill="#C9F68E" d="M926 1071h3l1 3-1.563 1.5c-2.042 2.095-3.961 4.227-5.875 6.438-3.637 4.178-7.324 8.051-11.625 11.562-2.75 2.34-4.735 4.66-6.937 7.5-4.364 4.69-4.364 4.69-7.188 6.063-1.955.779-1.955.779-2.644 2.699-1.482 2.84-3.399 4.734-5.668 6.988l-2.406 2.422C884 1121 884 1121 882 1121l-.875 1.875C880 1125 880 1125 878 1127h-3l-.75 2.375c-1.46 3.064-2.3 3.242-5.25 4.625a177.537 177.537 0 0 0-2 4 141.488 141.488 0 0 1-5 5l-1.438 1.688c-2.265 1.902-4.752 2.5-7.562 3.312v-2c1.574-1.516 1.574-1.516 3.688-3.25 2.575-2.18 4.9-4.294 7-6.938 2.238-2.722 4.552-4.649 7.312-6.812l2-3a644.447 644.447 0 0 1 4.865-4.131c4.35-3.807 8.371-7.962 12.447-12.056l2.745-2.733 2.619-2.623 2.372-2.376c2.1-2.124 2.1-2.124 3.952-5.081a915.485 915.485 0 0 1 4.785-4.05c2.789-2.455 5.45-5.027 8.09-7.638l1.48-1.44c2.296-2.29 3.604-3.75 4.645-6.872h3l2-6Z"/><path fill="#5BAB79" d="M566.125 823.5a79.956 79.956 0 0 1 6.082 2.527c3.747 1.305 7.422 1.647 11.356 2.035 8.063.834 8.063.834 10.558 1.53 1.957.63 1.957.63 3.879-.592a75.68 75.68 0 0 1 5 1v2l11-1v2c4.13-.567 4.13-.567 8-2 2.008.281 4.01.61 6 1l-1 2c-4.356.05-8.712.086-13.068.11-1.477.01-2.953.023-4.43.04-7.916.092-15.501-.029-23.287-1.687-2.615-.547-5.173-.728-7.84-.838-4.552-.359-7.674-1.55-11.71-3.582-4.216-1.65-8.616-2.258-13.082-2.916-3.959-.628-6.616-1.374-9.583-4.127 5.473-2.737 16.503.635 22.125 2.5Z"/><path fill="#5AB082" d="M486 795c5.281.93 9.818 2.192 14.59 4.734 10.532 5.53 21.544 10.377 32.855 14.063 4.572 1.518 6.92 3.14 9.555 7.203-4.511.376-4.511.376-6.844-1.418-2.48-1.82-4.427-2.333-7.406-3.082-10.104-2.94-19.491-7.717-28.975-12.219-3.295-1.521-6.643-2.89-10.024-4.209-2.203-1.349-2.801-2.712-3.751-5.072Z"/><path fill="#A9D478" d="M441 1150c1.77 1.457 1.77 1.457 3 3v2h2a125.745 125.745 0 0 1 3.492 3.496c2.239 2.233 4.695 4.186 7.153 6.172L458 1166v2c-4.517.366-4.517.366-6.813-1.375C450 1165 450 1165 450 1163l-2.188.625c-4.063.542-6.453-.733-9.812-2.938-2.48-2.091-4.707-4.394-7-6.687a206.108 206.108 0 0 0-5-4c5.311-2.451 9.651-2.089 15 0Zm-5 6 3 3-1-3h-2Z"/><path fill="#74C19E" d="m671.625 828.938 2.14.013c1.745.012 3.49.03 5.235.049l1 3 2 1c-3.45.78-6.624 1.122-10.157 1.114h-3.033l-3.236-.016-3.341-.005c-3.515-.005-7.03-.018-10.545-.03-2.387-.006-4.773-.01-7.159-.014-5.843-.011-11.686-.028-17.529-.049l1-3 2.171.016c3.235.02 6.47.034 9.704.047l3.418.025 3.262.01 3.015.016c2.44.05 2.44.05 4.43-1.114h8c3.065-1.533 6.268-1.103 9.625-1.063Z"/><path fill="#C9F68E" d="M1133 563h3c.025 5.072.043 10.144.055 15.216.005 1.726.012 3.451.02 5.177.013 2.48.018 4.96.023 7.439l.015 2.34c0 3.211-.09 5.758-1.113 8.828-.27 3.288-.445 6.576-.621 9.871-.358 2.956-.992 4.565-2.379 7.129l.007-1.713c.022-5.888.037-11.777.048-17.666.005-2.197.012-4.394.02-6.59.013-3.16.018-6.32.023-9.48l.015-2.971v-2.79l.007-2.442c-.06-2.412-.06-2.412-.686-4.972-.552-3.022.246-4.657 1.566-7.376Z"/><path fill="#587A38" d="m864 729 4 1c-8.884 11.455-18.927 21.652-30 31-1.502 1.31-3.002 2.623-4.5 3.938L830 768l-2-1c.57-3.392 1.478-4.777 4.125-6.938l2.18-1.835c1.449-1.198 2.898-2.395 4.348-3.591 9.45-7.844 17.643-16.067 25.347-25.636Z"/><path fill="#98BD6B" d="M992 984h1c-.466 5.707-1.938 9.16-5 14h-3l-.375 1.813C984 1002 984 1002 982 1005v3a90.576 90.576 0 0 1-4 4l-1 2h-2c.375-2.438.375-2.438 1-5l2-1-2-1 1-4-3-1a158.814 158.814 0 0 1 5-6h2l.75-1.75c1.417-2.55 3.126-4.268 5.25-6.25l2 2-1 3 4-9Zm-11 14 1 2Z"/><path fill="#C1EF88" d="m961 1031 1 4-3 2a791.206 791.206 0 0 0-3 5 178.888 178.888 0 0 1-4 4 664.22 664.22 0 0 0-3.188 3.75c-2.68 3.129-5.518 5.745-8.687 8.375-3.505 2.988-3.505 2.988-5.063 7.313L935 1068l-2 1c-1.134 2.017-1.134 2.017-2 4l-2-3 2-3-.375-2.813c.375-3.187.375-3.187 2.043-4.804a109.323 109.323 0 0 1 4.289-2.988c2.893-1.975 4.692-3.743 6.356-6.832 2.09-3.174 4.524-4.497 7.687-6.563 3.353-3.45 3.353-3.45 4-8 3.429-4 3.429-4 6-4Z"/><path fill="#C7F58D" d="M919 1073c0 3 0 3-2.187 5.496a296.46 296.46 0 0 1-3.028 2.941l-1.607 1.58a1045.802 1045.802 0 0 1-5.115 4.983 1432.807 1432.807 0 0 0-5.105 4.983 448.661 448.661 0 0 1-3.186 3.095c-2.352 2.304-3.714 3.748-4.772 6.922a98.213 98.213 0 0 1-4 2c-1.918 1.604-1.918 1.604-3.688 3.438l-1.824 1.808c-1.708 1.792-1.708 1.792-2.488 4.754-1.321.69-2.657 1.353-4 2a84.538 84.538 0 0 0-4.11 3.914l-2.285 2.305-2.355 2.406-2.402 2.43c-1.954 1.977-3.903 3.959-5.848 5.945 0-3 0-3 1.405-4.714l1.954-1.868 2.133-2.076 2.258-2.155c5.811-5.429 5.811-5.429 10.64-11.699.532-.82 1.063-1.642 1.61-2.488h2v-2c2.303-2.567 4.405-4.66 7.41-6.375 2.825-1.772 4.666-3.67 6.84-6.188l2.078-2.378c1.71-1.953 1.71-1.953 2.672-4.059l2.168-1.238c3.567-2.22 6.233-4.946 9.144-7.95l1.667-1.693c1.345-1.368 2.683-2.743 4.021-4.119Z"/><path fill="#5EBA8A" d="m828 764 2 2c-2.785 4.061-5.667 6.18-9.809 8.629-2.283 1.429-4.339 3-6.441 4.683a232.523 232.523 0 0 1-11.063 8.188l-2.988 2.094C797 791 797 791 794.645 790.719L793 790v-2l2.813-1.5c6.846-3.908 13.042-8.87 19.312-13.625 4.167-3.147 8.504-6.022 12.875-8.875Z"/><path fill="#58B78E" d="M445 765c5.147 2.638 9.617 5.366 13.902 9.246 2.844 2.378 5.86 4.465 8.91 6.567l1.746 1.204c2.105 1.44 4.157 2.84 6.442 3.983v2l2.375.188L481 789c1.313 2.563 1.313 2.563 2 5-3.914-.538-6.06-1.522-9.063-4.063-3.506-2.853-7.084-5.41-10.875-7.875-15.97-10.551-15.97-10.551-18.062-17.062Z"/><path fill="#C3F18A" d="M800 1189v3c-2.99 1.993-3.708 2.212-7.063 2.375L789 1195c-1.234 1.714-1.234 1.714-2 4-1.847 2.159-3.796 4.204-6 6h-2l-1 3c-1.89 1.676-1.89 1.676-4.25 3.313l-2.328 1.675c-2.422 1.012-2.422 1.012-5.219.18L764 1212c4.534-3.904 4.534-3.904 7.125-4.438 2.868-.86 3.432-3.052 4.875-5.562l3-1c1.709-1.375 1.709-1.375 3-3v-2l1.813-.313c2.24-.51 2.24-.51 3.562-2.124 2.254-2.168 4.662-2.68 7.625-3.563 2-1 2-1 5-1Z"/><path fill="#F0FBE6" d="m360 1082 4.988 4.277c1.308 1.12 2.618 2.237 3.93 3.352l1.832 1.559 1.672 1.417c2.765 2.444 5.197 5.084 7.582 7.895 4.718 5.422 9.831 10.443 14.933 15.5l2.94 2.926c2.372 2.36 4.746 4.718 7.123 7.074l-3 1a90.488 90.488 0 0 1-4-4v-2l-1.781-.794c-2.338-1.27-3.856-2.613-5.715-4.507l-1.943-1.963c-.66-.676-1.32-1.352-1.998-2.049l-1.987-2.013c-1.279-1.297-2.556-2.596-3.832-3.897a609.23 609.23 0 0 0-9.307-9.277c-2.437-2.5-2.437-2.5-4.5-5.188-1.737-2.41-1.737-2.41-4.125-3.312l-1.812-1c-.75-2.625-.75-2.625-1-5Z"/><path fill="#C2F089" d="M1074 828h1c.383 3.349.164 4.745-1.688 7.625-2.312 2.375-2.312 2.375-5 3.625-2.457 1.495-2.457 1.495-2.886 3.758-.53 4.163-.608 7.92.574 11.992l-3 1v2h-4c.888-6.597.888-6.597 1.625-9.25.58-1.982.58-1.982-.625-4.75h2l.875-2.25A82.767 82.767 0 0 1 1066 835l1-2 2.438-.938c2.86-.907 2.86-.907 4.562-4.062Z"/><path fill="#657F47" d="M311 1015c3.261.97 4.705 1.558 6.625 4.438L319 1022c1.582 1.751 1.582 1.751 3 3l-1 3c1.872 3.183 1.872 3.183 4 6h-2l1 7c-2.774-1.387-3.43-3.343-5-6l-2.188-2.438c-1.812-2.562-1.812-2.562-1.75-5.5-.07-3.435-.431-3.828-2.625-6.25L310 1018l1-3Z"/><path fill="#557543" d="m844 1152-5 4 1 6h-3l-2-2-1.313 1.5C832 1163 832 1163 829 1163l-.688 1.813c-1.668 2.78-3.44 3.751-6.312 5.187h-2c.56-3.617 1.763-5.017 4.563-7.313l2.167-1.808L829 1159c1.462-1.288 2.92-2.58 4.375-3.875 3.945-3.505 5.366-4.37 10.625-3.125Z"/><path fill="#5DB686" d="M591.563 829.5c3.338.573 3.338.573 6.437-.5a75.68 75.68 0 0 1 5 1v2l11-1v2c4.13-.567 4.13-.567 8-2 2.008.281 4.01.61 6 1l-1 2c-4.356.05-8.712.086-13.068.11-1.477.01-2.953.023-4.43.04-8.69.101-16.992-.124-25.502-2.15v-2c3.102-1.034 4.413-.957 7.563-.5Z"/><path fill="#59B78C" d="M709.438 823.313 711 824l-2 1v2c-9.777 4.866-18.225 5.162-29 5v-2l4.375-.875 2.762-.559c1.833-.362 3.668-.71 5.508-1.039 3.976-.727 7.558-1.492 11.23-3.215 3.125-1.312 3.125-1.312 5.563-1Z"/><path fill="#CAF78F" d="M145 568h1l2 51c-2.4-3.599-2.362-6.395-2.5-10.563-.207-4.572-.459-8.914-1.563-13.375-1.05-4.63-1.158-9.147-1.187-13.875l-.028-2.212c.024-4.098.454-7.29 2.278-10.975Z"/><path fill="#619757" d="M521 407h1v38c-4.733-4.733-3.184-12.643-3.188-18.875l-.037-3.55-.005-3.442-.013-3.129c.264-3.264 1.092-5.948 2.243-9.004Z"/><path fill="#EAFAD7" d="M926 1071h3l1 3-1.563 1.5c-2.042 2.095-3.961 4.227-5.875 6.438-4.726 5.429-9.733 10.79-15.562 15.062h-2c1.311-2.913 2.7-4.926 5.004-7.129l1.744-1.697 1.814-1.736a604.15 604.15 0 0 0 3.567-3.442l1.596-1.526c1.518-1.56 1.518-1.56 2.275-4.47h3l2-6Z"/><path fill="#6BB06F" d="M737.938 815.25 740 816v2l-2.75.875c-3.057.961-3.057.961-4.992 2.063-3.103 1.46-6.331 2.31-9.633 3.187l-1.96.55c-3.983 1.069-7.549 1.516-11.665 1.325l2-1 1-3 3.254-.516 4.308-.734 2.135-.332c3.81-.667 6.813-1.544 10.147-3.543C735 815 735 815 737.937 815.25Z"/><path fill="#5AAF80" d="M518 809c20.867 5.237 20.867 5.237 25 12-4.52.377-4.52.377-6.766-1.383-2.793-2.022-5.423-2.742-8.734-3.68-3.7-1.056-7.124-2.075-10.5-3.937l1-3Z"/><path fill="#C3F18A" d="M1020 109c-2.373 1.187-3.614 1.054-6.246.914l-2.537-.133-2.654-.156-2.643-.133c-6.527-.361-6.527-.361-9.92-1.492l1-3c2.062-.196 4.124-.382 6.188-.563l3.48-.316c5.977-.217 8.847.907 13.332 4.879Z"/><path fill="#D0F69F" d="m405 1127 3 2.563 1.945 1.66c1.341 1.16 2.67 2.334 3.985 3.523a94.198 94.198 0 0 0 13.09 9.895c1.899 1.303 3.413 2.678 4.98 4.359h-7l-1-2-2.313-1.375c-2.696-1.63-4.541-3.336-6.687-5.625l-1.438-1.438L412 1137l-2.563-2.375c-2.357-2.54-3.41-4.359-4.437-7.625Z"/><path fill="#C3F18B" d="m835 1159 2 3c-10.166 10.722-10.166 10.722-17 13-2.333.04-4.667.044-7 0l1-2c3.063-.625 3.063-.625 6-1v-2l1.75-.188c3.15-1.137 4.303-3.151 6.25-5.812 1.963-1.963 3.539-2.809 6-4l1-1Z"/><path fill="#5D8948" d="m948 1040 2 1c-1.163 2.749-2.647 4.867-4.563 7.125-2.397 2.597-2.397 2.597-3.437 4.875h-2l-.563 1.75c-2.143 3.354-4.925 4.43-8.437 6.25 1.304-5.026 3.242-7.76 6.938-11.375l2.652-2.648C943 1045 943 1045 946 1045l.438-1.938C947 1041 947 1041 948 1040Z"/><path fill="#C6F38C" d="M1116 678c.257 3.853.475 7.707.688 11.563l.22 3.29c.324 6.276.178 10.617-2.908 16.147-2.351-3.527-2.214-5.029-2.125-9.188l.055-3.292.07-2.52h2l-.438-3.688-.261-2.21c-.279-2.24-.279-2.24-1.051-4.914-.25-2.188-.25-2.188 1.125-4C1115 678 1115 678 1116 678Z"/><path fill="#B5E281" d="M175 130h18l1 3c-2.776.925-4.993 1.272-7.887 1.535l-2.842.264-2.958.263-2.995.276c-2.439.224-4.878.444-7.318.662v-2l5-2v-2Z"/><path fill="#C1EF88" d="m1122.313 136.813 2.882.574c3.626.793 7.216 1.665 10.805 2.613l-1 3-2.063-.473c-4.492-.806-9.01-.918-13.562-1.148-3.172-.356-5.502-1.035-8.375-2.379l1-2c3.703-1.122 6.554-.944 10.313-.188Z"/><path fill="#C0ED88" d="M554 20c2.563-.027 5.125-.047 7.688-.063l2.185-.025c3.843-.017 7.393.153 11.127 1.088v2c-2.461 1.23-4.258 1.206-7.008 1.316l-2.988.127-3.129.12-3.152.13c-2.574.107-5.149.209-7.723.307 1-2 1-2 4-3l-1-2Z"/><path fill="#5D8A49" d="M437 1150c4 0 4 0 5.75 1.375C444 1153 444 1153 444 1155h2a125.745 125.745 0 0 1 3.492 3.496c2.239 2.233 4.695 4.186 7.153 6.172L458 1166v2c-4.517.366-4.517.366-6.813-1.375C450 1165 450 1165 450 1163l-1.688-.688c-4.275-2.426-7.451-5.745-9.312-10.312h-2v-2Z"/><path fill="#496C30" d="m863 1131 2 3-11 11-2.219 2.313c-1.937 1.835-3.17 2.314-5.781 2.687v-3h2l.762-1.785c1.393-2.491 2.859-3.838 5.05-5.652A125.687 125.687 0 0 0 863 1131Z"/><path fill="#C5F18E" d="M287 984c2.61 1.305 2.68 2.358 3.625 5.063.26.733.52 1.466.79 2.222.192.566.386 1.132.585 1.715h3l1.188 2.813c1.53 3.322 1.53 3.322 4.437 4.687 2.375 1.5 2.375 1.5 3.188 4.688L304 1008c-4.73-1.494-4.73-1.494-6-3.875l-1-2.125-2.375-1.813c-4.266-3.555-6.572-7.615-7.375-13.125L287 984Z"/><path fill="#619757" d="M713 335c7.004 5.216 11.278 11.783 16 19l-1 2c-4.326-3.015-7.149-6.645-10.285-10.805-2.062-2.64-4.277-4.904-6.715-7.195l2-3Z"/><path fill="#C7F48D" d="m795 46 19 1v2l4 1v1c-8.27.214-15.962.074-24-2l1-3Z"/><path fill="#669651" d="m845 749 3 3c-1.873 1.73-3.749 3.46-5.625 5.188l-1.582 1.462A254.405 254.405 0 0 1 830 768l-2-1c.56-3.617 1.763-5.017 4.563-7.313l2.16-1.804L837 756a972.453 972.453 0 0 0 4.5-3.938L845 749Z"/><path fill="#BFE392" d="M325 1035c2 2 2 2 2.875 5 .778 3.11.778 3.11 3.125 4 2 1 2 1 3.063 4.063L335 1051l3 1a107.027 107.027 0 0 1 4 6c-3.51-.65-6.124-1.88-9-4a78.037 78.037 0 0 1-2-5l-3-2a178.655 178.655 0 0 1-2-4l-2-1 1-7Z"/><path fill="#C6F38C" d="M157 646h2l.076 1.769c.118 2.702.24 5.404.362 8.106l.119 2.781A284.42 284.42 0 0 0 161 677h-2c-2.776-6.783-3.413-12.713-3.25-20l.016-2.887c.079-6.958.079-6.958 1.234-8.113Z"/><path fill="#C6F48C" d="m274.5 103.813 2.844-.043c2.716.235 4.335.845 6.656 2.23v2l-23 1c4.897-4.897 6.869-5.142 13.5-5.188Z"/><path fill="#639350" d="M752 409c3.178 4.768 3.193 8.932 3.188 14.563l.001 2.136c-.059 5.915-.822 11.54-2.189 17.301h-1v-34Z"/><path fill="#C7F48C" d="m1085 129 3.313.5c5.226.666 10.427.587 15.687.5l1 2a78.037 78.037 0 0 0 5 2l-1 2-1.957-.469c-4.663-.814-9.346-.923-14.068-1.136-5.77-.293-5.77-.293-7.975-1.395v-4Z"/><path fill="#C3F189" d="M719.188 19.688c3.996.444 6.438 2.153 9.812 4.312v1l-24-1-1-2c4.484-2.242 10.253-1.829 15.188-2.313Z"/><path fill="#B0D989" d="M1036 904c2 1 2 1 2.875 3.563.17 4.668-1.23 7.639-3.875 11.437-1.902 1.92-3.803 3.402-6 5l-2-2 1.5-1.813c1.783-2.157 1.783-2.157 1.5-5.187.989-1.011 1.99-2.01 3-3 .986-2.03.986-2.03 1.688-4.188.25-.715.502-1.43.761-2.167L1036 904Zm-4 13 1 2Z"/><path fill="#C2EF89" d="M228 873h2c1 3 1 3 .938 6.813-.035 3.76.386 6.752 2.062 10.187 1.33.343 2.664.676 4 1 1.75 3.063 1.75 3.063 3 6-3.156-.263-4.695-.723-7.063-2.875-3.364-5.427-6.633-11.772-5.687-18.313L228 873Z"/><path fill="#BEEB87" d="m476.625 45.875 3.477-.008C483 46 483 46 485 47v2l-3.543.402-4.644.535-2.33.264c-3.197.37-6.273.75-9.409 1.49L463 52l-2-2 5-1v-2c3.566-1.107 6.905-1.133 10.625-1.125Z"/><path fill="#CAF78F" d="M890.125 71.75c4.2.27 7.845 1.123 11.875 2.25 1.499.38 2.999.754 4.5 1.125L910 76l-1 3-1.8-.402a110.118 110.118 0 0 0-16.852-2.254C888 76 888 76 885 74c2-2 2-2 5.125-2.25Z"/><path fill="#BFEB87" d="M256 936c6.127 5.882 11.49 12.549 17 19h-6l-1-2-3-2-.375-1.813c-.508-2.478-.508-2.478-3.125-4.562-2.832-2.974-3.22-4.604-3.5-8.625Z"/><path fill="#A6D076" d="M242 899c1.941 2.911 1.99 4.326 1.875 7.938-.091 3.277.058 3.958 1.938 6.875a96.198 96.198 0 0 0 3.937 3.75C251 919 251 919 251 923c-2.813-.438-2.813-.438-6-2-1.129-2.3-1.804-4.529-2.457-7.004-.361-1.98-.361-1.98-1.543-2.996a97.709 97.709 0 0 1-.125-5.5l-.008-3.031C241 900 241 900 242 899Z"/><path fill="#BBE884" d="M354 78c2.228-.109 4.458-.186 6.688-.25l3.761-.14C368 78 368 78 373 82l-22 2v-3l3-2v-1Z"/><path fill="#E8FAD2" d="M873 1129c-.313 1.938-.313 1.938-1 4l-3 1-.875 1.75c-1.513 3.025-3.686 4.93-6.125 7.25l-1.438 1.688c-2.265 1.902-4.752 2.5-7.562 3.312v-2c1.574-1.516 1.574-1.516 3.688-3.25 2.575-2.18 4.9-4.294 7-6.938 5.6-6.812 5.6-6.812 9.312-6.812Z"/><path fill="#C8F58D" d="M1021 110c16.893 1.927 16.893 1.927 24 4v2c-3.604-.139-7.208-.287-10.813-.438l-3.103-.119-2.979-.127-2.745-.11C1023 115 1023 115 1020 114l1-4Z"/><path fill="#CAF78F" d="m730 26 2.5.5c3.53.608 3.53.608 7.25.375 5.039-.098 9.53 1.5 14.25 3.125l-1 2c-3.271-.139-6.542-.287-9.813-.438l-2.814-.119-2.705-.127-2.491-.11C733 31 733 31 730 30v-4Z"/><path fill="#52783A" d="m1018 937 2 1c-1.458 3.402-3.404 5.404-6 8l-1.438 2.5c-1.797 2.876-3.839 4.513-6.562 6.5-.75-1.688-.75-1.688-1-4 1.813-2.75 1.813-2.75 4-5h2l.688-1.688c1.671-2.944 3.865-4.994 6.312-7.312Z"/><path fill="#CAF78F" d="m931 84 3 1c3.068.03 6.121-.066 9.188-.16C946 85 946 85 949 87c1.99.39 3.99.732 6 1l-1 2c-3.438-.11-6.875-.24-10.313-.375-.976-.03-1.952-.062-2.958-.094l-2.842-.117-2.619-.095C933 89 933 89 930 87l1-3Z"/><path fill="#BDEC86" d="M457 52v2h2v2l-3.473.184-4.59.254-2.279.119c-4.605.259-9.102.723-13.658 1.443v-2l7-2v-1c5.08-.847 9.848-1.09 15-1Z"/><path fill="#629452" d="m560 336 2 2a90.488 90.488 0 0 1-4 4h-2c-.235.552-.47 1.103-.71 1.672-1.618 2.921-3.655 5.124-5.915 7.578l-2.477 2.703L545 356l-1-2c4.025-6.586 8.881-14.44 16-18Z"/><path fill="#598343" d="m784 1192 4 1-4 4-2-1 1 3-3.25 1.75c-2.468 1.386-3.956 2.468-5.938 4.563L772 1207c-2.25-.25-2.25-.25-4-1 4.75-4 4.75-4 7-4l.875-2.438C777 1197 777 1197 779 1196l1 1 1-2h2l1-3Z"/><path fill="#C9F68E" d="M416 745c4.056 1.66 7.016 4.503 10.188 7.438l1.654 1.486c2.529 2.322 4.055 3.767 5.158 7.076-4.565 0-6.51-2.77-9.77-5.758C416 747.974 416 747.974 416 745Z"/><path fill="#D1F7A0" d="M344 1061c3.173 2.115 4.118 3.907 5.887 7.191 1.638 2.661 3.884 4.64 6.113 6.809l1 3h2l1 4c-4.719-1.49-4.719-1.49-6-3.813l-1-2.187a282.832 282.832 0 0 0-5-5c-2.056-2.513-3.79-4.974-5-8l1-2Z"/><path fill="#C1EF89" d="m926 80 3 1-1 3c-2.459-.14-4.917-.287-7.375-.438l-2.117-.119c-5.281-.33-5.281-.33-7.508-1.443v-2a324.19 324.19 0 0 1 5.25-1.125l2.953-.633c3.099-.268 4.198.17 6.797 1.758Z"/><path fill="#C6F48C" d="m747 1221 2 1c-.359 2.755-.773 3.8-2.89 5.668-.78.501-1.558 1.003-2.36 1.52l-2.328 1.542c-2.504 1.313-4.638 1.86-7.422 2.27 0-3 0-3 1-5l2.125-.25c4.207-1.098 6.76-3.815 9.875-6.75Z"/><path fill="#BFEB8C" d="m939 1055 2 1-2.438 2.625c-2.56 3.027-3.102 5.42-3.562 9.375l-2 1c-1.134 2.017-1.134 2.017-2 4l-2-3 2-3-.375-2.813c.375-3.187.375-3.187 2.148-4.91A98.14 98.14 0 0 1 939 1055Z"/><path fill="#AED6CD" d="M628 831h19l1 3h-21l1-3Z"/><path fill="#C0EE87" d="M164 679h2v21l-2-1v-2l-2-1c.14-2.646.287-5.292.438-7.938l.119-2.287c.33-5.662.33-5.662 1.443-6.775Z"/><path fill="#0E1707" d="M1140 562c-.14 3.667-.288 7.333-.438 11l-.119 3.121c-.235 5.681-.638 11.25-1.443 16.879h-1v-30c2-1 2-1 3-1Z"/><path fill="#B7E583" d="M332 85a710.49 710.49 0 0 1 6.813-.125l3.832-.07C346 85 346 85 349 87c-1.676 1.676-3.826 1.346-6.129 1.535l-3.135.264-3.298.263-3.311.276c-2.709.225-5.418.445-8.127.662v-2l7-2v-1Z"/><path fill="#C1EE89" d="m532 27 18 1v2l-24 2v-2l6-2v-1Z"/><path fill="#639350" d="M330 1040c2.313.625 2.313.625 5 2 1.05 1.974 2.05 3.976 3 6 2.05 1.853 2.05 1.853 4 3l-1 3h-3c-2.984-3.202-5.105-6.065-7-10l-2-1 1-3Z"/><path fill="#67A05C" d="M791 789c2.188.313 2.188.313 4 1l-1 3-5 1v2c-1.264.7-2.537 1.384-3.813 2.063l-2.144 1.16C781 800 781 800 778 799c1-3 1-3 2.96-4.063l2.415-.937c3.28-1.282 5.162-2.523 7.625-5Z"/><path fill="#283C1C" d="M140 568h3c1.162 7.26 1.568 14.663 1 22l-2 2c-.336-3.437-.668-6.875-1-10.313-.095-.976-.19-1.952-.29-2.958l-.273-2.842-.253-2.619C140 571 140 571 140 568Z"/><path fill="#CBF694" d="m1023 937 1 2c-1.867 4.666-4.342 7.61-8 11l-2.125 2.313C1012 954 1012 954 1009 954c2.115-4.999 5.906-9.464 10-13l3-1 1-3Z"/><path fill="#62904D" d="m987 988 2 2a105.022 105.022 0 0 1-4 5h-2l-.938 2.375C981 1000 981 1000 980 1002c-2.563.625-2.563.625-5 1 0-3 0-3 1.875-5.188C979 996 979 996 981 996l.75-1.75c1.417-2.55 3.126-4.268 5.25-6.25Z"/><path fill="#BBE683" d="M603 1260h4c2 3 2 3 2 6l2.813.813c3.039 1.132 4.088 1.886 6.187 4.187-1.44-.257-2.877-.53-4.313-.813l-2.425-.457c-2.262-.73-2.262-.73-3.805-2.304-1.594-1.892-1.594-1.892-5.457-1.426l1-2-1-3 1-1Z"/><path fill="#62904E" d="M311 1015c3.261.97 4.705 1.558 6.625 4.438L319 1022c1.582 1.751 1.582 1.751 3 3l-1 2c-2.125 0-2.125 0-5-1-2.372-2.427-4.438-4.98-6-8l1-3Z"/><path fill="#619D60" d="M546 820c2.605.181 5.057.463 7.625.875l2.14.316c1.747.26 3.491.533 5.235.809l1 3 3 1c-7.455-.366-14.05-1.21-21-4l2-2Z"/><path fill="#5EA269" d="m468 782 8 4v2l2.375.188L481 789c1.313 2.563 1.313 2.563 2 5-4.42-.526-6.877-2.096-10.313-4.875l-2.675-2.117L468 785v-3Z"/><path fill="#5A7A3F" d="m168 132 2 3c-1.02 1.457-1.02 1.457-3 3-2.63.376-5.05.601-7.688.688l-2.126.103c-1.728.082-3.457.147-5.186.209l-1-2c11.522-3.444 11.522-3.444 17-3v-2Z"/><path fill="#C8F58D" d="M259 112v2l-24 2v-2a677.87 677.87 0 0 1 7.5-1.563l2.11-.458c5.106-1.017 9.255-.852 14.39.021Z"/><path fill="#78A859" d="M144.75 140.688 147 142l2 1-2 4h-3v-2l-6-1v7h-2c-.375-3.25-.375-3.25 0-7 4.57-4.357 4.57-4.357 8.75-3.313Z"/><path fill="#C2F089" d="M973 94c2.322.405 4.655.76 7 1v2l-23-2 1-3c6.244-1.205 9.133-.773 15 2Z"/><path fill="#CAF78F" d="M376 72c6.433-.095 12.658-.153 19 1v2l-23 2c1-2 1-2 4-4v-1Z"/><path fill="#CDF59A" d="M446 1162c1.75.188 1.75.188 4 1l1.688 2.25c3.162 3.76 6.968 5.569 11.312 7.75l-3 2c-5.318-2.516-10.726-5.558-13.5-10.875L446 1162Z"/><path fill="#5A8544" d="M260 936c5.151 3.471 7.99 7.632 11 13-2.875-.75-2.875-.75-6-2-1.188-2.063-1.188-2.063-2-4l-3-1c-1.688-2.563-1.688-2.563-3-5l3-1Z"/><path fill="#C3F18A" d="m845 56-1 2-2.445-.465c-4.145-.624-8.247-.881-12.43-1.097l-2.375-.131c-1.917-.106-3.833-.207-5.75-.307v-2c8.65-2.162 15.667-.573 24 2Z"/><path fill="#BDEB86" d="M1063 847h2l1 8-3 1v2h-4c.875-6.75.875-6.75 2-9h2v-2Z"/><path fill="#1F3011" d="M160 677c1.488.988 1.488.988 3 3 .217 2.811.283 5.388.188 8.188l-.042 2.271c-.035 1.847-.089 3.694-.146 5.541l-2 1c-.363-3.145-.714-6.291-1.063-9.438l-.314-2.72-.283-2.588-.27-2.396L159 678l1-1Z"/><path fill="#CAF78F" d="M309 92c2.313.113 4.626.241 6.938.375l3.902.21L323 93l1 2-2.93.148C313.55 95.58 306.347 96.22 299 98v-3l10-2v-1Z"/><path fill="#C3F18A" d="m585 1253 2.438.875c3.551 1.122 7.051 1.877 10.707 2.563L600 1257l1 2c-2.082.108-4.166.186-6.25.25l-3.516.14c-3.81-.46-4.89-1.441-7.234-4.39l1-2Z"/><path fill="#C7F194" d="M305 1011h3l.734 1.574c2.048 4.26 4.247 7.76 7.266 11.426v2c-3.301-1.424-5.358-3.14-7.75-5.813l-1.86-2.019c-1.663-2.593-1.664-4.144-1.39-7.168Z"/><path fill="#AED6CD" d="M603 829c5.778-.12 11.28.168 17 1l1 3c-2.333.042-4.667.04-7 0l-1-1a91.472 91.472 0 0 0-5.063-.063l-2.785.028L603 832v-3Z"/><path fill="#CAF78F" d="m159.938 137.875 2.36.027c1.901.024 3.802.06 5.702.098v2l-2.781.148c-6.648.405-12.833.936-19.219 2.852l-2-3c5.47-1.845 10.188-2.253 15.938-2.125Z"/><path fill="#64904D" d="M1136 141c2.007.287 4.009.619 6 1l-1 2c-2.063.625-2.063.625-4 1l-1 5c-2.438-1.188-2.438-1.188-5-3-.813-2.688-.813-2.688-1-5 1.207.03 1.207.03 2.438.063 2.496.233 2.496.233 3.562-1.063Z"/><path fill="#C5F28C" d="m1004 959 3 2c.25 3.063.25 3.063 0 6-1 1-1 1-3.563 1.063L1001 968c-.897-2.51-1.132-3.645-.188-6.188C1002 960 1002 960 1004 959Z"/><path fill="#69B67F" d="m828 764 2 2c-3.362 5.115-7.676 7.327-13 10 .28-3.439.652-4.693 3.285-7.02l2.778-1.793 2.785-1.832L828 764Z"/><path fill="#18250D" d="M994 101c2.25.114 4.5.242 6.75.375l3.797.21c3.063.368 4.873.812 7.453 2.415-2.83 1.415-5.284 1.208-8.438 1.25l-3.496.078C997 105 997 105 995.09 103.547 994 102 994 102 994 101Z"/><path fill="#223418" d="M885 69c2.125.14 4.25.288 6.375.438l3.586.246C898 70 898 70 900 71v2h2v2l-2.195-.402c-4.93-.9-9.858-1.796-14.805-2.598v-3Z"/><path fill="#182610" d="M793 43c2.438.114 4.875.24 7.313.375.69.03 1.38.062 2.091.094 3.666.212 5.475.45 8.596 2.531-1 1-1 1-3.074 1.133-4.754-.014-9.25-.149-13.926-1.133l-1-3Z"/><path fill="#B9E589" d="m852 1147 3 2c-2.174 2.5-3.73 3.436-7 4v3l-2.813-.125c-3.345-.146-3.345-.146-6.187 2.125v-3c2.082-1.605 2.082-1.605 4.813-3.188l2.707-1.605C849 1149 849 1149 852 1149v-2Z"/><path fill="#19270E" d="M703 17c2.271.114 4.542.242 6.813.375 1.264.07 2.529.14 3.832.21C717 18 717 18 720 20c-3.462 1.067-6.64 1.102-10.25 1.063l-3.266-.028L704 21l-1-4Z"/><path fill="#C7F58D" d="m996 970 3 1c1.188 3.563 1.188 3.563 2 7-1.25 1.563-1.25 1.563-3 3l-4-1 2-10Z"/><path fill="#CAF78F" d="M1128 620h1c.055 2.667.094 5.333.125 8l.05 2.254c.046 5.251-.718 9.698-2.175 14.746h-1c-.166-8.014.102-16.03 1-24l1-1ZM883 69v2a1592.97 1592.97 0 0 1-6.313-.438c-1.171-.08-2.343-.162-3.55-.246C870 70 870 70 867 69v-2c6.281-1.083 10.182-.91 16 2Z"/><path fill="#C3F18A" d="M467 1177h2c1.495 2.273 2.784 4.568 4 7a78.037 78.037 0 0 0 5 2v1c-8.188-.945-8.188-.945-11-3-1.238-2.953-1.042-3.874 0-7Z"/><path fill="#668C4B" d="m211 827 2 5-5 1 .625 1.875L209 837l-2 2c-1.423-3.823-2.24-6.913-2-11 2-1 2-1 6-1Z"/><path fill="#18250D" d="m1119 678 2 1-2 18-2-1c-.105-5.772-.088-11.318 1-17l1-1Z"/><path fill="#17240D" d="M1085 127c2.315.038 4.628.155 6.938.313l3.84.238C1099 128 1099 128 1101 130c-11.104 2.167-11.104 2.167-15.438-.5L1084 128l1-1Z"/><path fill="#C3F18A" d="M1055 861c3.938 3.323 3.938 3.323 4.25 6.75L1059 870l-5 1c-1.546-3.092-.603-5.685 0-9l1-1Z"/><path fill="#C8F58E" d="M196 795h2l.184 2.16c.464 5.31.997 10.573 1.816 15.84h-2c-3.125-6.625-3.125-6.625-2-10 .067-1.394.085-2.792.063-4.188L196 795Z"/><path fill="#699952" d="m864 729 4 1-7 9-4-1c.978-1.313 1.958-2.626 2.938-3.938l1.652-2.214C863 730 863 730 864 729Z"/><path fill="#C7F48D" d="m728 1233 2 1-1 3h-2l-.875 1.875C725 1241 725 1241 723 1243c-2.323.4-4.657.74-7 1 1.656-1.904 2.55-2.905 5.063-3.438 2.116-.37 2.116-.37 3-2.437L725 1236c1.625-1.75 1.625-1.75 3-3Z"/><path fill="#C8F58E" d="M493 1196c2.908 1.342 5.252 2.861 7.688 4.938l1.824 1.527C504 1204 504 1204 505 1207l-2 1-3.875-3.375-2.18-1.898A91.238 91.238 0 0 1 493 1199v-3Z"/><path fill="#3E5D24" d="m948 1040 2 1c-1.658 3.919-4.11 6.903-7 10-2.313.875-2.313.875-4 1 0-3 0-3 1.813-5.188C943 1045 943 1045 946 1045l.438-1.938C947 1041 947 1041 948 1040Z"/><path fill="#68BC84" d="M752 812c-2.295 2.67-4.076 3.565-7.5 4.313l-2.344.55C740 817 740 817 737 815l3.813-1.438 2.144-.808c3.563-1.315 5.4-1.885 9.043-.754Z"/><path fill="#CAF78F" d="M1108 710h2v14l-3-1c-1.206-4.944-.63-8.209 1-13ZM847 60c5.873-.14 11.27.82 17 2v2c-6.115.097-11.933-.23-18-1l1-3Z"/><path fill="#C6F38C" d="m605.48 6.61 2.707.14 2.731.11L613 7v4h-13c3-4 3-4 5.48-4.39Z"/><path fill="#C8F58E" d="M677 1259c3.08-.257 5.211-.394 8 1v2c-2.983 1.524-5.818 2.94-9 4-.625-1.813-.625-1.813-1-4l2-3Z"/><path fill="#0F1809" d="M264 952c3 1 3 1 4 3l2.563 1.125C273 958 273 958 273.327 959.973c-.014 2.012-.164 4.022-.328 6.027h-2l-.75-3.875c-.49-2.197-.49-2.197-1.25-4.125-1.984-1.284-1.984-1.284-4-2-.75-2.125-.75-2.125-1-4Z"/><path fill="#639350" d="M435 757c5.117 3.502 8.906 6.586 12 12-4.51-1.46-7.615-3.692-11-7-.875-2.813-.875-2.813-1-5Z"/><path fill="#CAF78F" d="M1049 118c6.069-.253 11.162.302 17 2v1h-18l1-3ZM231 118l1 3h-15c4.031-2.687 9.265-5.368 14-3Z"/><path fill="#1F3017" d="M930 82c1.772.114 3.542.242 5.313.375l2.988.21C941 83 941 83 944 85c-1 1-1 1-2.926 1.133l-2.386-.008-2.364.008c-2.237-.128-4.177-.514-6.324-1.133v-3Z"/><path fill="#C7F48C" d="M168 710h4v15l-3-1 .035-2.555.028-3.32.035-3.305c.1-2.772.1-2.772-1.098-4.82Z"/><path fill="#131E0B" d="M285 101v2c-7.051 2.212-13.647 2.202-21 2 3.565-2.127 6.978-2.584 11.063-3.125l3.722-.508C282 101 282 101 285 101Z"/><path fill="#121C0A" d="M485 42v3c-1.514 1.514-2.925 1.213-5.035 1.316l-2.451.127-2.577.12-2.587.13c-2.117.107-4.233.207-6.35.307 3.604-2.403 7.007-2.91 11.188-3.625l2.271-.406c1.846-.33 3.693-.65 5.541-.969Z"/><path fill="#1D2C14" d="M729 24c5.419-.226 9.775.533 15 2-3.975 2.65-7.321 2.75-12 2-2.063-2-2.063-2-3-4Z"/><path fill="#050902" d="M433 1150c1.625 2.313 1.625 2.313 3 5l1.188 2.313L438 1159c-4.452-1.4-6.856-3.601-10-7l-2-2c3.158-1.053 4.03-1.299 7 0Z"/><path fill="#BDEB86" d="M221 862c2.907 1.066 3.844 1.703 5.313 4.5C227 869 227 869 226 871c-1.875-.188-1.875-.188-4-1-1.313-2.375-1.313-2.375-2-5l1-3Z"/><path fill="#BBEA85" d="M183 759c3.409 3.409 3.93 8.322 4.125 13l-.125 2h-2l-.375-1.875c-.497-2.316-.497-2.316-2.625-4.125-.339-6.323-.339-6.323 1-9Z"/><path fill="#213318" d="M1020 108c1.771.141 3.542.288 5.313.438.986.08 1.972.162 2.988.246C1031 109 1031 109 1034 110v2c-9.581.564-9.581.564-14-3v-1Z"/><path fill="#213317" d="m395 69-2 1v2l-15 1c5.499-4.124 10.279-4.164 17-4Z"/><path fill="#CAF78F" d="M515.043 32.61 521 33l2 4h-13c3-4 3-4 5.043-4.39Z"/><path fill="#BBE684" d="M296 998c4.845 2.29 4.845 2.29 7 4 .938 3.25.938 3.25 1 6-4.704-1.485-4.704-1.485-6.188-4.063L297 1002l-2-1 1-3Z"/><path fill="#BEED86" d="m151 620 2 1v12l-3 1a672.997 672.997 0 0 1-.063-4.75l-.035-2.672c.09-2.36.429-4.323 1.098-6.578Z"/><path fill="#C5F38B" d="M291.563 98.125C294 99 294 99 296 102c-2.76 1.804-3.89 2.013-7.25 1.625L286 103c0-2 0-2 1.188-3.688C289 98 289 98 291.563 98.126Z"/><path fill="#C6F48C" d="m813 1180 1 4c-6.625 3-6.625 3-10 3 1.832-4.428 4.036-7 9-7Z"/><path fill="#CAF78F" d="M274 960c2 1.188 2 1.188 4 3 .25 2.688.25 2.688 0 5l-5-1-1-6 2-1Z"/><path fill="#080E05" d="m1015 952 1 3c-1.375 1.5-1.375 1.5-3 3h-2l-2 8h-1c-1.25-6.625-1.25-6.625 1-10l4-1 2-3Z"/><path fill="#C6F48C" d="M228 873h2c1.005 3.015 1.103 5.042 1.063 8.188l-.028 2.73L231 886c-3-2-3-2-3.75-5.375-.206-2.991-.246-4.86.75-7.625Z"/><path fill="#223418" d="m259 108-1 3c-5.385.917-10.542 1.111-16 1 5.336-2.829 10.924-4.38 17-4Z"/><path fill="#CAF78F" d="M770 37h-13l1-3c5.081-2.103 7.809-.143 12 3ZM760 1215v4c-1 1-1 1-4.063 1.063L753 1220l-1-2c2.466-3.115 4.108-3.316 8-3Z"/><path fill="#C5F38B" d="M279 972h3c2.29 3.435 2.178 4.985 2 9-2.494-.998-3.787-1.686-5.313-3.938C278 975 278 975 279 972Z"/><path fill="#17230D" d="m211 839 3 1c.196 1.436.381 2.874.563 4.313l.316 2.425C215 849 215 849 214 852h-2a987.023 987.023 0 0 1-1.063-5.938l-.597-3.34L210 840l1-1Z"/><path fill="#203212" d="m147 619 3 2c.293 3.258.293 3.258.188 7.125l-.083 3.883L150 635c-3.427-5.14-3.102-10.008-3-16Z"/><path fill="#C5F38B" d="M988 97c3.4 1.133 4.053 2.125 6 5-3.576 1.238-6.337.75-10 0 1.75-3.875 1.75-3.875 4-5Z"/><path fill="#CAF78F" d="M421 59c1.604-.027 3.208-.046 4.813-.063l2.707-.035C431 59 431 59 434 60v2l-18 1v-1l5-1v-2Z"/><path fill="#14200D" d="m576 17-1 3c-10.558 1.333-10.558 1.333-15 0 3.123-2.082 4.379-2.334 8-2.625l2.625-.227A86.18 86.18 0 0 1 576 17Z"/><path fill="#CAF78F" d="M926 1071h3l1 3-1.875 1.813c-2.262 2.195-2.262 2.195-4.125 5.187l-3-1v-3h3l2-6Z"/><path fill="#C6F48C" d="M583.688 14.688C586 16 586 16 587 18c-1.29.363-2.582.715-3.875 1.063l-2.18.597C579 20 579 20 577 19c0-2 0-2 1.688-3.75 2.312-1.25 2.312-1.25 5-.563Z"/><path fill="#CAF78F" d="M480 1189c2.813-.313 2.813-.313 6 0 1.875 2.5 1.875 2.5 3 5-5.625.25-5.625.25-9-2v-3Z"/><path fill="#0A1206" d="M296 1001c2.248 2.052 3.002 3.007 4 6 2.015.733 2.015.733 4 1l1 6h-2l-.688-1.688c-1.29-2.532-1.29-2.532-3.937-4.812C296 1005 296 1005 296 1001Z"/><path fill="#CAF78F" d="M242 899c1.906 3.212 2.223 5.539 2.125 9.25l-.055 2.703L244 913l-3-2c-.328-2.566-.328-2.566-.25-5.563.015-.99.03-1.982.047-3.003C241 900 241 900 242 899Z"/><path fill="#4C7137" d="m1069 827 2 1c-.313 2.375-.313 2.375-1 5l-3 2c-1.192 2.05-1.192 2.05-2 4l-2-3c1.303-2.907 2.709-4.808 5-7l1-2Z"/><path fill="#334C22" d="M1109 706h3c1.223 6.268 1.912 11.177-1 17v-13h-2v-4Z"/><path fill="#5D8947" d="m741 1221 3 3c-3.323 3.938-3.323 3.938-6.75 4.25L735 1228v-2h2l1-3 3-2Z"/><path fill="#0A1105" d="M490.063 1194.438c2.925 2.359 3.64 5.06 4.937 8.562-2.926-1.312-4.753-2.753-7-5-2.1-1.176-2.1-1.176-4-2 2.257-1.451 3.386-2.13 6.063-1.563Z"/><path fill="#BCEB84" d="m972 1011 3 3c-1.293 2.884-2.66 4.872-5 7l-2-2c2.875-6.875 2.875-6.875 4-8Z"/><path fill="#3E5C23" d="M427 752c3.37.602 5.49 1.658 8 4 1.25 2.688 1.25 2.688 2 5-4.428-1.392-6.956-3.52-10-7v-2Z"/><path fill="#5C8949" d="M1130 608h1l1 12c-4-2-4-2-4.938-3.75-.09-3.288 1.342-5.44 2.938-8.25Z"/><path fill="#456331" d="m845 57 9 1v2l4 1c-3.383 1.128-4.768.818-8.188.063l-2.73-.59L845 60v-3Z"/><path fill="#070C04" d="m603 1262-2 3-3-2c-2.046-.662-2.046-.662-4.188-1.125L590 1261v-1c8.429-1.571 8.429-1.571 13 2Z"/><path fill="#CAF78F" d="M800 1189v3c-3.089 2.06-3.71 2.239-7.188 2.125L789 1194c6.364-5 6.364-5 11-5Z"/><path fill="#5A8442" d="M828 1162c-.188 2.313-.188 2.313-1 5-4.034 3-4.034 3-7 3 .34-3.175 1.025-4.023 3.438-6.25C826 1162 826 1162 828 1162Z"/><path fill="#B8E882" d="M344 1061c3.648 2.432 5.349 4.97 7 9-.25 2.438-.25 2.438-1 4l-1.375-2.375c-1.51-2.662-1.51-2.662-3.625-4.625-1.188-2-1.188-2-2-4l1-2Z"/><path fill="#D1F4A8" d="m1036 904 2 1c.875 2.75.875 2.75 1 6-1.938 2.875-1.938 2.875-4 5-.925-4.716-1.23-7.673 1-12Z"/><path fill="#CAF78F" d="M216 850c2 1.188 2 1.188 4 3 .25 2.688.25 2.688 0 5-3.875-.875-3.875-.875-5-2-.125-2.5-.125-2.5 0-5l1-1ZM1120 658l3 2c.188 3.125.188 3.125 0 6l-2 1-3-3 2-6ZM690 1253l6 2c-1.125 1.5-1.125 1.5-3 3-3.188.188-3.188.188-6 0l-1-2 4-1v-2Z"/><path fill="#619656" d="m712 822 9 1c-2.495 2.495-3.673 2.36-7.125 2.625l-2.758.227L709 826l2-1 1-3Z"/><path fill="#CAF78F" d="m1087 784 3 1c.813 1.813.813 1.813 1 4-.938 2.25-.938 2.25-2 4h-3l1-9Z"/><path fill="#2C431E" d="m166 710 4 2v10h-2l-2-12Z"/><path fill="#0E1708" d="M1111 134c1.938.114 3.876.242 5.813.375 1.078.07 2.157.14 3.269.21C1123 135 1123 135 1126 137h-14l-1-3Z"/><path fill="#0A1005" d="m194 128-1 2h-14c2.454-2.454 3.547-2.384 6.938-2.688l2.652-.261C191 127 191 127 194 128Z"/><path fill="#1E2F11" d="M820 50c1.959.114 3.917.241 5.875.375 1.09.07 2.181.14 3.305.21C832 51 832 51 834 53h-14v-3Z"/><path fill="#C8F58D" d="M571 1247h5v2h3l1 3c-1.688.75-1.688.75-4 1-2.75-1.813-2.75-1.813-5-4v-2Z"/><path fill="#5D8B4A" d="M966 1014h3l1 3c-1.404 2.264-3.197 4.02-5 6-1.056-3.167-.98-3.964 0-7l1-2Z"/><path fill="#141F0C" d="M237 898h2c2.094 3.402 2.18 6.053 2 10l-2 1-3-10 1-1Z"/><path fill="#CAF78F" d="M1101 737h2l1 9-3 2c-1.125-7.625-1.125-7.625 0-11Z"/><path fill="#639350" d="m719 507 1 2a340.172 340.172 0 0 1-2.375 3.5l-1.336 1.969L715 516h-2l-1-4 2.938-1.938c2.822-1.759 2.822-1.759 4.062-3.062Z"/><path fill="#C6F38C" d="M1081 125c2.25 1.563 2.25 1.563 4 3-2.633 1.316-3.802.748-6.625.063l-2.477-.59L1074 127v-2c3.202-1.067 3.949-1.11 7 0Z"/><path fill="#6E9F55" d="m507 1203 3 1c-.25 1.875-.25 1.875-1 4-2.063 1.25-2.063 1.25-4 2-1.125-3.75-1.125-3.75 0-6l2-1Z"/><path fill="#0A1105" d="M464.188 1175.375 466 1176c.625 1.813.625 1.813 1 4l-2 3-.75-1.875c-1.456-2.476-2.628-3.076-5.25-4.125 3-2 3-2 5.188-1.625Z"/><path fill="#C8F58D" d="M1064 839h1c.25 6.625.25 6.625-2 10l-2-1c-.625-2.063-.625-2.063-1-4h2l2-5Z"/><path fill="#5EA067" d="m689 829 3 3h-12v-2c3.05-1.525 5.642-1.236 9-1Z"/><path fill="#C6F38C" d="M203 813c2.6 3.9 2.15 7.474 2 12l-1-2h-2c-.027-1.48-.046-2.958-.063-4.438l-.035-2.496C202 814 202 814 203 813Z"/><path fill="#223413" d="M956 88c1.532.252 3.053.576 4.563.938l2.503.59L965 90v2h-9l-1-3 1-1Z"/><path fill="#0E1707" d="m349 82-1 3h-12c4.276-2.851 7.932-3.145 13-3Z"/><path fill="#0C1407" d="m911 76 11 1v2h-11v-3Z"/><path fill="#466935" d="M615 2h1v5c-3.473 1.158-6.36 1.069-10 1V6l1.715-.367 2.222-.508 2.215-.492C614.207 4.17 614.207 4.17 615 2Z"/><path fill="#70A058" d="M724 1235c-1.37 3.161-1.99 3.993-5 6h-3c1.76-4.06 3.286-6 8-6Z"/><path fill="#C5F38C" d="M1025 925h2a485.352 485.352 0 0 1-.375 5.438c-.07 1.009-.14 2.018-.21 3.058-.138.826-.274 1.653-.415 2.504l-2 1 1-5h-2c.875-5.875.875-5.875 2-7Z"/><path fill="#639350" d="M249.125 910.688C251 912 251 912 251.75 914.125L252 916c-2.875-.25-2.875-.25-6-1-1.375-2.063-1.375-2.063-2-4 3-1 3-1 5.125-.313Z"/><path fill="#14200C" d="M224 871c3 2 3 2 3.813 5.5L228 880l-2 2-3-10 1-1Z"/><path fill="#5AA16C" d="M537.438 815.688c2.773 1.42 3.914 2.71 5.562 5.312-2.188.313-2.188.313-5 0-2.813-2.5-2.813-2.5-5-5 2-1 2-1 4.438-.313Z"/><path fill="#CAF78F" d="M1081 795h3v8h-3a176.79 176.79 0 0 1-1-7l1-1Z"/><path fill="#5C8949" d="M1090 766h2l1 9-2 1c-1.625-2.75-1.625-2.75-3-6 .813-2.375.813-2.375 2-4Z"/><path fill="#CAF78F" d="m1094 764 3 3-2 7h-2c-.027-1.48-.046-2.958-.063-4.438l-.035-2.496C1093 765 1093 765 1094 764Z"/><path fill="#203212" d="M1132 620h1a583.395 583.395 0 0 1-.375 5.875c-.07 1.09-.14 2.181-.21 3.305C1132 632 1132 632 1130 634c-.369-9.41-.369-9.41 2-14Z"/><path fill="#CAF78F" d="M697.438 14.688c2.955.36 3.75 1.024 5.562 3.312-4.054 1.158-6.218.837-10-1 2-2 2-2 4.438-2.313Z"/><path fill="#16220C" d="m822 1176-2.313 1.25c-2.624 1.709-3.99 3.16-5.687 5.75-.625-2.375-.625-2.375-1-5 2.672-2.672 5.483-3.758 9-2Z"/><path fill="#070B04" d="m1068 840 2 1-2 11c-2.194-2.194-2.655-2.979-3-6 1.448-4.448 1.448-4.448 3-6Z"/><path fill="#0F1808" d="m1055 872 2 1-3 9-2-1c.75-6.75.75-6.75 3-9Z"/><path fill="#0E1707" d="M1086 795h2l-2 10h-1c-.125-7.75-.125-7.75 1-10Z"/><path fill="#050802" d="M1093 775h1c.25 7.625.25 7.625-2 11a585.281 585.281 0 0 1-.063-4.375l-.035-2.46C1092 777 1092 777 1093 775Z"/><path fill="#0B1206" d="M752 1221h6c-2.463 2.463-4.707 2.998-8 4l2-4Z"/><path fill="#090F05" d="m1030 924 1 2a135.916 135.916 0 0 1-3 7h-1c-.262-3.146-.248-4.618 1.5-7.313L1030 924Z"/><path fill="#091005" d="M791 1195h5c-1 2-1 2-4.063 3.125L789 1199l2-4Z"/><path fill="#040802" d="M732 1234h5l-1 2c-2.563.625-2.563.625-5 1l1-3Z"/><path fill="#0B1306" d="m1105 736 2 1-1 7h-1v-8Z"/><path fill="#091005" d="m843 1156 3 1-4 3-2-1 3-3Z"/><path fill="#020501" d="M939 1060c0 3 0 3-1.5 4.688L936 1066c.573-2.867.861-3.861 3-6Z"/><path fill="#000100" d="M1125 661c.625 1.813.625 1.813 1 4l-2 3c-.043-2-.04-4 0-6l1-1Z"/><path fill="#060A03" d="M1080 815c.625 1.875.625 1.875 1 4l-2 2a99.984 99.984 0 0 1 0-5l1-1Z"/><path fill="#030601" d="m964 1028 2 1-2 3h-2l2-4Z"/><path fill="#213212" d="m1041 905 1 2-1 2h-2v-3l2-1Z"/><path fill="#030702" d="M765 1214h2v2l-4 1 2-3Z"/><path fill="#0F1908" d="M788 1199v3h-3l3-3Z"/><path fill="#101A09" d="m996 982 2 1-3 3 1-4Z"/><path fill="#090F05" d="m686 1260 4 1-4 1v-2Z"/><path fill="#0A1005" d="m1099 763 1 2-2 2c0-3 0-3 1-4Z"/><path fill="#17240D" d="m577 1253 4 1-2 1-2-2Z"/><path fill="#050903" d="M1046 893h2l-1 3-1-3Z"/><path fill="#2C4319" d="m605 1267 2 1Z"/><path fill="#0D1607" d="m699 1254 2 1Z"/><path fill="#1B2B0F" d="m701 1253 2 1Z"/><path fill="#0D1607" d="m710 1248 2 1Z"/><path fill="#1F2E11" d="m548 1236 2 1Z"/><path fill="#2C4319" d="m745 1228 2 1Z"/><path fill="#0D1607" d="m747 1227 2 1ZM495 1203l2 1ZM208 839l2 1Z"/><path fill="#2C4319" d="m368 74 2 1Z"/><path fill="#CAF78F" d="m397 65 2 1Z"/></svg>